<svg xmlns="http://www.w3.org/2000/svg" xmlns:xlink="http://www.w3.org/1999/xlink" width="54.889mm" height="24.511mm" viewBox="3995.4 3018.5 216.1 96.5"><title></title><style type="text/css">
*[layerid="1"] {stroke:#FF0000;fill:#FF0000;}
*[layerid="2"] {stroke:#0000FF;fill:#0000FF;}
*[layerid="3"] {stroke:#FFCC00;fill:#FFCC00;}
*[layerid="4"] {stroke:#66CC33;fill:#66CC33;}
*[layerid="5"] {stroke:#808080;fill:#808080;}
*[layerid="6"] {stroke:#800000;fill:#800000;}
*[layerid="7"] {stroke:#800080;fill:#800080;stroke-opacity:0.7;fill-opacity:0.7;}
*[layerid="8"] {stroke:#AA00FF;fill:#AA00FF;stroke-opacity:0.7;fill-opacity:0.7;}
*[layerid="9"] {stroke:#6464FF;fill:#6464FF;}
*[layerid="10"] {stroke:#FF00FF;fill:#FF00FF;}
*[layerid="11"] {stroke:#C0C0C0;fill:#C0C0C0;}
*[layerid="12"] {stroke:#FFFFFF;fill:#FFFFFF;}
*[layerid="13"] {stroke:#33CC99;fill:#33CC99;}
*[layerid="14"] {stroke:#5555FF;fill:#5555FF;}
*[layerid="15"] {stroke:#F022F0;fill:#F022F0;}
*[layerid="19"] {stroke:#66CCFF;fill:#66CCFF;}
*[layerid="21"] {stroke:#999966;fill:#999966;}
*[layerid="22"] {stroke:#008000;fill:#008000;}
*[layerid="23"] {stroke:#00FF00;fill:#00FF00;}
*[layerid="24"] {stroke:#BC8E00;fill:#BC8E00;}
*[layerid="25"] {stroke:#70DBFA;fill:#70DBFA;}
*[layerid="26"] {stroke:#00CC66;fill:#00CC66;}
*[layerid="27"] {stroke:#9966FF;fill:#9966FF;}
*[layerid="28"] {stroke:#800080;fill:#800080;}
*[layerid="29"] {stroke:#008080;fill:#008080;}
*[layerid="30"] {stroke:#15935F;fill:#15935F;}
*[layerid="31"] {stroke:#000080;fill:#000080;}
*[layerid="32"] {stroke:#00B400;fill:#00B400;}
*[layerid="33"] {stroke:#2E4756;fill:#2E4756;}
*[layerid="34"] {stroke:#99842F;fill:#99842F;}
*[layerid="35"] {stroke:#FFFFAA;fill:#FFFFAA;}
*[layerid="36"] {stroke:#99842F;fill:#99842F;}
*[layerid="37"] {stroke:#2E4756;fill:#2E4756;}
*[layerid="38"] {stroke:#3535FF;fill:#3535FF;}
*[layerid="39"] {stroke:#8000BC;fill:#8000BC;}
*[layerid="40"] {stroke:#43AE5F;fill:#43AE5F;}
*[layerid="41"] {stroke:#C3ECCE;fill:#C3ECCE;}
*[layerid="42"] {stroke:#728978;fill:#728978;}
*[layerid="43"] {stroke:#39503F;fill:#39503F;}
*[layerid="44"] {stroke:#0C715D;fill:#0C715D;}
*[layerid="45"] {stroke:#5A8A80;fill:#5A8A80;}
*[layerid="46"] {stroke:#2B937E;fill:#2B937E;}
*[layerid="47"] {stroke:#23999D;fill:#23999D;}
*[layerid="48"] {stroke:#45B4E3;fill:#45B4E3;}
*[layerid="49"] {stroke:#215DA1;fill:#215DA1;}
*[layerid="50"] {stroke:#4564D7;fill:#4564D7;}
*[layerid="51"] {stroke:#6969E9;fill:#6969E9;}
*[layerid="52"] {stroke:#9069E9;fill:#9069E9;}
*[layerid="99"] {stroke:#00CCCC;fill:#00CCCC;stroke-opacity:0.6;fill-opacity:0.6;}
*[layerid="100"] {stroke:#CC9999;fill:#CC9999;}
*[layerid="101"] {stroke:#66FFCC;fill:#66FFCC;}
*[layerid="Hole"] {stroke:#222222;fill:#222222;}
*[layerid="DRCError"] {stroke:#FAD609;fill:#FAD609;}
*[fill="none"] {fill: none;}
*[stroke="none"] {stroke: none;}
path, polyline, polygon, line {stroke-linecap:round;}
g[c_partid="part_pad"][layerid="1"] ellipse:not([c_etype="pad_outer"]) {fill:#FF0000;}
g[c_partid="part_pad"][layerid="1"] polygon:not([c_etype="pad_outer"]) {fill:#FF0000;}
g[c_partid="part_pad"][layerid="1"] polyline:not([c_etype="pad_outer"]) {stroke:#FF0000;}
g[c_partid="part_pad"][layerid="2"] ellipse:not([c_etype="pad_outer"]) {fill:#0000FF;}
g[c_partid="part_pad"][layerid="2"] polygon:not([c_etype="pad_outer"]) {fill:#0000FF;}
g[c_partid="part_pad"][layerid="2"] polyline:not([c_etype="pad_outer"]) {stroke:#0000FF;}
g[c_partid="part_pad"][layerid="11"] ellipse:not([c_etype="pad_outer"]) {fill:#C0C0C0;}
g[c_partid="part_pad"][layerid="11"] polygon:not([c_etype="pad_outer"]) {fill:#C0C0C0;}
g[c_partid="part_pad"][layerid="11"] polyline:not([c_etype="pad_outer"]) {stroke:#C0C0C0;}
g[c_partid="part_pad"][layerid="11"] circle {fill:#222222;}
g[c_partid="part_pad"][layerid="11"] > polyline:nth-of-type(2) {stroke:#222222;}
g[c_partid="part_pad"][layerid="11"][c_shape="ELLIPSE"]  polyline:nth-last-of-type(1) {stroke:#222222;}
g[c_partid="part_pad"][layerid="11"][c_shape="RECT"]  polyline:nth-last-of-type(1) {stroke:#222222;}
g[c_partid="part_pad"][layerid="11"][c_shape="POLYGON"]  polyline:nth-last-of-type(1) {stroke:#222222;}
g[c_partid="part_via"] > * + circle, #gCurParts g[c_partid="part_via"] > * + circle {fill:#222222;}
g[c_partid="part_pad"] > polygon[c_etype="pad_outer"], #gCurParts g[c_partid="part_pad"] > polygon[c_etype="pad_outer"] {stroke-linejoin: round;stroke-miterlimit: 100;}
g[c_partid="part_hole"] > circle {fill: #222222;}path, polyline, polygon {stroke-linejoin:round;}
rect, circle, ellipse, polyline, line, polygon, path {shape-rendering:crispEdges;}
</style>
<rect x="3995.4" y="3018.5" width="216.1" height="96.5" fill="#000000" stroke="none"/><path d="M 4143.30378 3094.00407 L 4051.90645 3094.47277 4051.75377 3094.44333 4051.62385 3094.35789 4051.53632 3094.22937 4051.50443 3094.07717 4051.48068 3091.91635 4051.50986 3091.76193 4051.59626 3091.63067 4051.72657 3091.54282 4051.88066 3091.51195 4055.29725 3091.51195 4055.29725 3089.72242 4051.8522 3089.72242 4051.70014 3089.6924 4051.57092 3089.60682 4051.48392 3089.47854 4051.45222 3089.32682 4051.4274 3087.06777 4051.45657 3086.91335 4051.54298 3086.78209 4051.67329 3086.69425 4051.82738 3086.66338 4055.29725 3086.66338 4055.29725 3084.87385 4051.79892 3084.87385 4051.64686 3084.84382 4051.51763 3084.75824 4051.43064 3084.62996 4051.39894 3084.47825 4051.29075 3074.6329 4051.31993 3074.47848 4051.40634 3074.34722 4051.53664 3074.25937 4051.69073 3074.2285 4056.02531 3074.2285 4056.54787 3074.27 4066.72828 3074.27 4067.17713 3074.23468 4067.59959 3074.13325 4067.77137 3074.0621 4067.92444 3074.03165 4068.29308 3074.03165 4068.51511 3074.00242 4068.69757 3073.92684 4068.85426 3073.80661 4068.97449 3073.64992 4069.05007 3073.46746 4069.06394 3073.36212 4069.12316 3073.19941 4069.2456 3073.07697 4069.40831 3073.01775 4069.5808 3073.03284 4069.73075 3073.11942 4069.83007 3073.26125 4069.97436 3073.52645 4070.02551 3073.64992 4070.14574 3073.80661 4070.2693 3073.91244 4070.36519 3074.02471 4070.69556 3074.30688 4071.06601 3074.53389 4071.46741 3074.70015 4071.88987 3074.80158 4072.323 3074.83566 4072.75613 3074.80158 4073.17859 3074.70015 4073.55208 3074.54545 4073.70516 3074.515 4075.93759 3074.51502 4076.10979 3074.55399 4076.24845 3074.66329 4076.32654 3074.82164 4076.32885 3074.99819 4076.25493 3075.15852 4076.14451 3075.30243 4076.06893 3075.48489 4076.0397 3075.70692 4076.0397 3076.2181 4077.4001 3076.2181 4077.4001 3074.91504 4077.43055 3074.76196 4077.51726 3074.63219 4077.64703 3074.54548 4077.8001 3074.51504 4079.2009 3074.51505 4079.35398 3074.5455 4079.48374 3074.63221 4079.57045 3074.76198 4079.6009 3074.91505 4079.6009 3076.2181 4080.9613 3076.2181 4080.9613 3075.70692 4080.93207 3075.48489 4080.85649 3075.30243 4080.74611 3075.15857 4080.67219 3074.99823 4080.6745 3074.82169 4080.75259 3074.66334 4080.89124 3074.55403 4081.06345 3074.51507 4082.3662 3074.51508 4082.5384 3074.55404 4082.67705 3074.66335 4082.75514 3074.8217 4082.75745 3074.99824 4082.68354 3075.15858 4082.57316 3075.30243 4082.49758 3075.48489 4082.46835 3075.70692 4082.46835 3076.2181 4083.86417 3076.2181 4083.86417 3074.91509 4083.89462 3074.76202 4083.98133 3074.63225 4084.1111 3074.54554 4084.26418 3074.51509 4084.98319 3074.5151 4085.43203 3074.47978 4085.64245 3074.42926 4085.78596 3074.42136 4085.923 3074.4647 4086.03587 3074.55368 4086.11 3074.67682 4086.13583 3074.81821 4086.13583 3076.2181 4087.53165 3076.2181 4087.53165 3075.70692 4087.50242 3075.48489 4087.42684 3075.30243 4087.30822 3075.14784 4087.09753 3074.99048 4086.98831 3074.86618 4086.93874 3074.70831 4086.9573 3074.54389 4087.04082 3074.40104 4087.17501 3074.30422 4087.3369 3074.27 4092.22828 3074.27 4092.67713 3074.23468 4093.09959 3074.13325 4093.27137 3074.0621 4093.42444 3074.03165 4093.79308 3074.03165 4094.01511 3074.00242 4094.19757 3073.92684 4094.35426 3073.80661 4094.47449 3073.64992 4094.55007 3073.46746 4094.5793 3073.24543 4094.5793 3073.0847 4094.59432 3072.97612 4094.67964 3072.80814 4094.79847 3072.68455 4094.95813 3072.62206 4095.12928 3072.63216 4095.28048 3072.71297 4095.38396 3072.84967 4095.4207 3073.01714 4095.4207 3073.24543 4095.44993 3073.46746 4095.52551 3073.64992 4095.64574 3073.80661 4095.80243 3073.92684 4095.98489 3074.00242 4096.20692 3074.03165 4096.67356 3074.03165 4096.82663 3074.0621 4096.99841 3074.13325 4097.42087 3074.23468 4097.86972 3074.27 4104.24028 3074.27 4104.68913 3074.23468 4105.11159 3074.13325 4105.29701 3074.05645 4105.45008 3074.026 4116.97238 3074.026 4117.42123 3073.99068 4117.84369 3073.88925 4118.24509 3073.72299 4118.46114 3073.59059 4118.56156 3073.54667 4118.79308 3073.53165 4119.01511 3073.50242 4119.19757 3073.42684 4119.35426 3073.30661 4119.47449 3073.14992 4119.55007 3072.96746 4119.5793 3072.74543 4119.5793 3072.58486 4119.59432 3072.47628 4119.67964 3072.3083 4119.79847 3072.18471 4119.95813 3072.12223 4120.12928 3072.13232 4120.28048 3072.21314 4120.38396 3072.34984 4120.4207 3072.5173 4120.4207 3072.74543 4120.44993 3072.96746 4120.52551 3073.14992 4120.64574 3073.30661 4120.80243 3073.42684 4120.98489 3073.50242 4121.20692 3073.53165 4121.67356 3073.53165 4121.82663 3073.5621 4121.99841 3073.63325 4122.42087 3073.73468 4122.854 3073.76876 4123.28713 3073.73468 4123.43309 3073.711 4128.46224 3073.711 4128.63445 3073.74997 4128.7731 3073.85927 4128.85119 3074.01762 4128.8535 3074.19416 4128.77959 3074.3545 4128.66731 3074.50083 4128.59173 3074.68329 4128.5625 3074.90532 4128.5625 3075.2191 4129.86 3075.2191 4129.86 3074.111 4129.89045 3073.95793 4129.97716 3073.82816 4130.10693 3073.74145 4130.26 3073.711 4130.88228 3073.711 4131.33113 3073.67568 4131.44162 3073.64915 4131.58513 3073.64125 4131.72217 3073.68459 4131.83504 3073.77357 4131.90918 3073.89671 4131.935 3074.0381 4131.935 3075.2191 4133.2325 3075.2191 4133.2325 3074.90532 4133.20327 3074.68329 4133.12769 3074.50083 4133.00746 3074.34414 4132.85077 3074.22391 4132.66831 3074.14833 4132.41285 3074.1191 4132.24539 3074.08236 4132.10869 3073.97888 4132.02787 3073.82768 4132.01778 3073.65653 4132.08026 3073.49687 4132.20385 3073.37804 4132.52544 3073.18098 4132.85581 3072.89881 4133.13798 3072.56844 4133.36499 3072.19799 4133.53125 3071.79659 4133.63268 3071.37413 4133.66676 3070.941 4133.63268 3070.50787 4133.53125 3070.08541 4133.36499 3069.68401 4133.13798 3069.31356 4132.85581 3068.98319 4132.52544 3068.70102 4132.15499 3068.47401 4131.75359 3068.30775 4131.33113 3068.20632 4130.88228 3068.171 4122.92872 3068.171 4122.47987 3068.20632 4122.05741 3068.30775 4121.74319 3068.4379 4121.59012 3068.46835 4121.20692 3068.46835 4120.98489 3068.49758 4120.80243 3068.57316 4120.64574 3068.69339 4120.52551 3068.85008 4120.44993 3069.03254 4120.4207 3069.25457 4120.4207 3069.4827 4120.38396 3069.65016 4120.28048 3069.78686 4120.12928 3069.86768 4119.95813 3069.87777 4119.79847 3069.81529 4119.67964 3069.6917 4119.59432 3069.52372 4119.5793 3069.41514 4119.5793 3069.25457 4119.55007 3069.03254 4119.47449 3068.85008 4119.35426 3068.69339 4119.19757 3068.57316 4119.01511 3068.49758 4118.79308 3068.46835 4118.42454 3068.46835 4118.27147 3068.4379 4118.09969 3068.36675 4117.67723 3068.26532 4117.2441 3068.23124 4116.81097 3068.26532 4116.38851 3068.36675 4116.21673 3068.4379 4116.06366 3068.46835 4115.69592 3068.46835 4115.53563 3068.486 4113.56163 3068.486 4113.38943 3068.44703 4113.25077 3068.33773 4113.17268 3068.17938 4113.17037 3068.00284 4113.24429 3067.8425 4113.35549 3067.69757 4113.43107 3067.51511 4113.4603 3067.29308 4113.4603 3066.7819 4112.0999 3066.7819 4112.0999 3068.086 4112.06945 3068.23907 4111.98274 3068.36884 4111.85297 3068.45555 4111.6999 3068.486 4110.2991 3068.486 4110.14603 3068.45555 4110.01626 3068.36884 4109.92955 3068.23907 4109.8991 3068.086 4109.8991 3066.7819 4108.5387 3066.7819 4108.5387 3067.29308 4108.56793 3067.51511 4108.64351 3067.69757 4108.75471 3067.8425 4108.82863 3068.00284 4108.82632 3068.17938 4108.74823 3068.33773 4108.60957 3068.44703 4108.43737 3068.486 4107.13298 3068.486 4106.96078 3068.44703 4106.82212 3068.33773 4106.74403 3068.17938 4106.74172 3068.00284 4106.81564 3067.8425 4106.92684 3067.69757 4107.00242 3067.51511 4107.03165 3067.29308 4107.03165 3066.7819 4105.63582 3066.7819 4105.63582 3068.086 4105.60538 3068.23907 4105.51867 3068.36884 4105.3889 3068.45555 4105.23582 3068.486 4104.51581 3068.486 4104.06687 3068.52133 4103.85755 3068.57158 4103.71404 3068.57948 4103.577 3068.53614 4103.46413 3068.44715 4103.39 3068.32402 4103.36418 3068.18263 4103.36418 3066.7819 4101.96835 3066.7819 4101.96835 3067.29308 4101.99758 3067.51511 4102.07316 3067.69757 4102.19178 3067.85216 4102.40247 3068.00952 4102.51169 3068.13382 4102.56126 3068.29169 4102.5427 3068.45611 4102.45918 3068.59896 4102.32499 3068.69578 4102.1631 3068.73 4097.86972 3068.73 4097.42087 3068.76532 4096.99841 3068.86675 4096.82663 3068.9379 4096.67356 3068.96835 4096.20692 3068.96835 4095.98489 3068.99758 4095.80243 3069.07316 4095.64574 3069.19339 4095.52551 3069.35008 4095.44993 3069.53254 4095.4207 3069.75457 4095.4207 3069.98286 4095.38396 3070.15033 4095.28048 3070.28703 4095.12928 3070.36784 4094.95813 3070.37794 4094.79847 3070.31545 4094.67964 3070.19186 4094.59432 3070.02388 4094.5793 3069.9153 4094.5793 3069.75457 4094.55007 3069.53254 4094.47449 3069.35008 4094.35426 3069.19339 4094.19757 3069.07316 4094.01511 3068.99758 4093.79308 3068.96835 4093.42444 3068.96835 4093.27137 3068.9379 4093.09959 3068.86675 4092.67713 3068.76532 4092.22828 3068.73 4085.01572 3068.73 4084.56687 3068.76532 4084.14441 3068.86675 4083.95633 3068.94465 4083.80326 3068.9751 4073.88081 3068.975 4073.80408 3068.96835 4070.70692 3068.96835 4070.48489 3068.99758 4070.30243 3069.07316 4070.14574 3069.19339 4070.02551 3069.35008 4069.94993 3069.53254 4069.9207 3069.75457 4069.9207 3069.98286 4069.88396 3070.15033 4069.78048 3070.28703 4069.62928 3070.36784 4069.45813 3070.37794 4069.29847 3070.31545 4069.17964 3070.19186 4069.09432 3070.02388 4069.0793 3069.9153 4069.0793 3069.75457 4069.05007 3069.53254 4068.97449 3069.35008 4068.85426 3069.19339 4068.69757 3069.07316 4068.51511 3068.99758 4068.29308 3068.96835 4067.92444 3068.96835 4067.77137 3068.9379 4067.59959 3068.86675 4067.17713 3068.76532 4066.72828 3068.73 4056.54787 3068.73 4056.02531 3068.7715 4051.62197 3068.7715 4051.46991 3068.74147 4051.34069 3068.65589 4051.25369 3068.52761 4051.22199 3068.3759 4051.1138 3058.53045 4051.14298 3058.37603 4051.22939 3058.24477 4051.35969 3058.15692 4051.51378 3058.12605 4055.29725 3058.12605 4055.29725 3056.33652 4051.48532 3056.33652 4051.33326 3056.3065 4051.20404 3056.22092 4051.11704 3056.09264 4051.08535 3055.94092 4051.06052 3053.68187 4051.0897 3053.52745 4051.17611 3053.39619 4051.30641 3053.30835 4051.4605 3053.27747 4055.29725 3053.27747 4055.29725 3051.48795 4051.43204 3051.48795 4051.27992 3051.4579 4051.15066 3051.37225 4051.06368 3051.24388 4051.03206 3051.09207 4051.02002 3049.92412 4051.04928 3049.76979 4051.1357 3049.63862 4051.26597 3049.55084 4051.42 3049.52 4160.08 3049.52 4160.23307 3049.55045 4160.36284 3049.63716 4160.44955 3049.76693 4160.48 3049.92 4160.48 3060.5684 4160.44955 3060.72147 4160.36284 3060.85124 4160.23307 3060.93795 4160.08 3060.9684 4156.67125 3060.9684 4156.67125 3062.46265 4160.08 3062.46265 4160.23307 3062.4931 4160.36284 3062.57981 4160.44955 3062.70958 4160.48 3062.86265 4160.48 3064.53115 4160.44955 3064.68422 4160.36284 3064.81399 4160.23307 3064.9007 4160.08 3064.93115 4156.67125 3064.93115 4156.67125 3066.4254 4160.08 3066.4254 4160.23307 3066.45585 4160.36284 3066.54256 4160.44955 3066.67233 4160.48 3066.8254 4160.48 3071.88725 4160.44955 3072.04032 4160.36284 3072.17009 4160.23307 3072.2568 4160.08 3072.28725 4141.68372 3072.28725 4141.46169 3072.31648 4141.27923 3072.39206 4141.12254 3072.51229 4141.00231 3072.66898 4140.92673 3072.85144 4140.9149 3072.94131 4140.87109 3073.07766 4140.78206 3073.18984 4140.65922 3073.26346 4140.51832 3073.2891 4139.8375 3073.2891 4139.68443 3073.25865 4139.55466 3073.17194 4139.46795 3073.04217 4139.4375 3072.8891 4139.4375 3072.6659 4138.14 3072.6659 4138.14 3072.8891 4138.10955 3073.04217 4138.02284 3073.17194 4137.89307 3073.25865 4137.74 3073.2891 4137.11872 3073.2891 4136.66987 3073.32442 4136.55838 3073.35119 4136.41487 3073.35909 4136.27783 3073.31575 4136.16496 3073.22677 4136.09082 3073.10363 4136.065 3072.96224 4136.065 3072.6659 4134.7675 3072.6659 4134.7675 3073.27468 4134.79673 3073.49671 4134.87231 3073.67917 4134.97488 3073.81284 4135.03796 3073.93274 4135.0574 3074.06682 4135.03097 3074.1997 4134.9617 3074.31613 4134.86302 3074.43166 4134.63601 3074.80211 4134.46975 3075.20351 4134.36832 3075.62597 4134.33424 3076.0591 4134.36832 3076.49223 4134.46975 3076.91469 4134.63601 3077.31609 4134.86302 3077.68654 4135.14519 3078.01691 4135.47556 3078.29908 4135.84601 3078.52609 4136.24741 3078.69235 4136.66987 3078.79378 4137.11872 3078.8291 4140.53388 3078.8291 4140.68931 3078.86053 4140.82031 3078.94988 4140.90629 3079.08312 4141.00468 3079.33411 4141.12254 3079.48771 4141.27923 3079.60794 4141.46169 3079.68352 4141.68372 3079.71275 4160.08 3079.71275 4160.23307 3079.7432 4160.36284 3079.82991 4160.44955 3079.95968 4160.48 3080.11275 4160.48 3085.1746 4160.44955 3085.32767 4160.36284 3085.45744 4160.23307 3085.54415 4160.08 3085.5746 4156.67125 3085.5746 4156.67125 3087.06885 4160.08 3087.06885 4160.23307 3087.0993 4160.36284 3087.18601 4160.44955 3087.31578 4160.48 3087.46885 4160.48 3089.13735 4160.44955 3089.29042 4160.36284 3089.42019 4160.23307 3089.5069 4160.08 3089.53735 4156.67125 3089.53735 4156.67125 3091.0316 4160.08 3091.0316 4160.23307 3091.06205 4160.36284 3091.14876 4160.44955 3091.27853 4160.48 3091.4316 4160.48 3093.58 4160.44955 3093.73307 4160.36284 3093.86284 4160.23307 3093.94955 4160.08 3093.98 4143.5242 3093.98 4143.30378 3094.00407 Z M 4065.63975 3089.72242 L 4065.63975 3091.51195 4070.28478 3091.51195 4070.50681 3091.48272 4070.68927 3091.40714 4070.84596 3091.28691 4070.96619 3091.13022 4071.04177 3090.94776 4071.071 3090.72573 4071.071 3089.72242 4065.63975 3089.72242 Z M 4071.071 3053.27747 L 4071.071 3052.27417 4071.04177 3052.05214 4070.96619 3051.86968 4070.84596 3051.71299 4070.68927 3051.59276 4070.50681 3051.51718 4070.28478 3051.48795 4065.63975 3051.48795 4065.63975 3053.27747 4071.071 3053.27747 Z M 4065.63975 3056.33652 L 4065.63975 3058.12605 4070.28478 3058.12605 4070.50681 3058.09682 4070.68927 3058.02124 4070.84596 3057.90101 4070.96619 3057.74432 4071.04177 3057.56186 4071.071 3057.33983 4071.071 3056.33652 4065.63975 3056.33652 Z M 4071.071 3086.66338 L 4071.071 3085.66007 4071.04177 3085.43804 4070.96619 3085.25558 4070.84596 3085.09889 4070.68927 3084.97866 4070.50681 3084.90308 4070.28478 3084.87385 4065.63975 3084.87385 4065.63975 3086.66338 4071.071 3086.66338 Z M 4146.32875 3087.06885 L 4146.32875 3085.5746 4141.68372 3085.5746 4141.46169 3085.60383 4141.27923 3085.67941 4141.12254 3085.79964 4141.00231 3085.95633 4140.92673 3086.13879 4140.8975 3086.36082 4140.8975 3087.06885 4146.32875 3087.06885 Z M 4146.32875 3091.0316 L 4146.32875 3089.53735 4140.8975 3089.53735 4140.8975 3090.24538 4140.92673 3090.46741 4141.00231 3090.64987 4141.12254 3090.80656 4141.27923 3090.92679 4141.46169 3091.00237 4141.68372 3091.0316 4146.32875 3091.0316 Z M 4140.8975 3061.75462 L 4140.8975 3062.46265 4146.32875 3062.46265 4146.32875 3060.9684 4141.68372 3060.9684 4141.46169 3060.99763 4141.27923 3061.07321 4141.12254 3061.19344 4141.00231 3061.35013 4140.92673 3061.53259 4140.8975 3061.75462 Z M 4146.32875 3066.4254 L 4146.32875 3064.93115 4140.8975 3064.93115 4140.8975 3065.63918 4140.92673 3065.86121 4141.00231 3066.04367 4141.12254 3066.20036 4141.27923 3066.32059 4141.46169 3066.39617 4141.68372 3066.4254 4146.32875 3066.4254 Z M 4105.63582 3063.4097 L 4105.63582 3064.7071 4107.03165 3064.7071 4107.03165 3064.19592 4107.00242 3063.97389 4106.92684 3063.79143 4106.80661 3063.63474 4106.64992 3063.51451 4106.46746 3063.43893 4106.24543 3063.4097 4105.63582 3063.4097 Z M 4101.96835 3064.19592 L 4101.96835 3064.7071 4103.36418 3064.7071 4103.36418 3063.4097 4102.75457 3063.4097 4102.53254 3063.43893 4102.35008 3063.51451 4102.19339 3063.63474 4102.07316 3063.79143 4101.99758 3063.97389 4101.96835 3064.19592 Z M 4086.13583 3078.2929 L 4086.13583 3079.5903 4086.74543 3079.5903 4086.96746 3079.56107 4087.14992 3079.48549 4087.30661 3079.36526 4087.42684 3079.20857 4087.50242 3079.02611 4087.53165 3078.80408 4087.53165 3078.2929 4086.13583 3078.2929 Z M 4083.86417 3079.5903 L 4083.86417 3078.2929 4082.46835 3078.2929 4082.46835 3078.80408 4082.49758 3079.02611 4082.57316 3079.20857 4082.69339 3079.36526 4082.85008 3079.48549 4083.03254 3079.56107 4083.25457 3079.5903 4083.86417 3079.5903 Z M 4136.065 3070.3959 L 4136.065 3069.0009 4135.55372 3069.0009 4135.33169 3069.03013 4135.14923 3069.10571 4134.99254 3069.22594 4134.87231 3069.38263 4134.79673 3069.56509 4134.7675 3069.78712 4134.7675 3070.3959 4136.065 3070.3959 Z M 4138.14 3069.0009 L 4138.14 3070.3959 4139.4375 3070.3959 4139.4375 3069.78712 4139.40827 3069.56509 4139.33269 3069.38263 4139.21246 3069.22594 4139.05577 3069.10571 4138.87331 3069.03013 4138.65128 3069.0009 4138.14 3069.0009 Z M 4113.4603 3064.7071 L 4113.4603 3064.19592 4113.43107 3063.97389 4113.35549 3063.79143 4113.23526 3063.63474 4113.07857 3063.51451 4112.89611 3063.43893 4112.67408 3063.4097 4112.0999 3063.4097 4112.0999 3064.7071 4113.4603 3064.7071 Z M 4109.8991 3064.7071 L 4109.8991 3063.4097 4109.32492 3063.4097 4109.10289 3063.43893 4108.92043 3063.51451 4108.76374 3063.63474 4108.64351 3063.79143 4108.56793 3063.97389 4108.5387 3064.19592 4108.5387 3064.7071 4109.8991 3064.7071 Z M 4079.6009 3078.2929 L 4079.6009 3079.5903 4080.17508 3079.5903 4080.39711 3079.56107 4080.57957 3079.48549 4080.73626 3079.36526 4080.85649 3079.20857 4080.93207 3079.02611 4080.9613 3078.80408 4080.9613 3078.2929 4079.6009 3078.2929 Z M 4077.4001 3079.5903 L 4077.4001 3078.2929 4076.0397 3078.2929 4076.0397 3078.80408 4076.06893 3079.02611 4076.14451 3079.20857 4076.26474 3079.36526 4076.42143 3079.48549 4076.60389 3079.56107 4076.82592 3079.5903 4077.4001 3079.5903 Z M 4129.86 3077.9991 L 4129.86 3076.8991 4128.5625 3076.8991 4128.5625 3077.21288 4128.59173 3077.43491 4128.66731 3077.61737 4128.78754 3077.77406 4128.94423 3077.89429 4129.12669 3077.96987 4129.34872 3077.9991 4129.86 3077.9991 Z M 4132.44628 3077.9991 L 4132.66831 3077.96987 4132.85077 3077.89429 4133.00746 3077.77406 4133.12769 3077.61737 4133.20327 3077.43491 4133.2325 3077.21288 4133.2325 3076.8991 4131.935 3076.8991 4131.935 3077.9991 4132.44628 3077.9991 Z " stroke-width="0" layerid="1" attachedcopperid="gge1077" c_shapetype="line" id="gge1077_0" class=""></path><polyline points="4117.2441 3071 4116.9881 3071.256 4111 3071.256" stroke-width="4.02"  stroke-linecap="round" fill="none" layerid="1" net="C8_2" id="gge1185" locked="0" /><polyline points="4130.898 3070.941 4122.913 3070.941 4122.854 3071" stroke-width="4.02"  stroke-linecap="round" fill="none" layerid="1" net="C10_1" id="gge1191" locked="0" /><polyline points="4111 3071.256 4104.5001 3071.256 4104.5 3071.2561" stroke-width="4.02"  stroke-linecap="round" fill="none" layerid="1" net="C8_2" id="gge1182" locked="0" /><polyline points="4104.5 3071.256 4104.256 3071.5 4097.854 3071.5" stroke-width="4.02"  stroke-linecap="round" fill="none" layerid="1" net="C8_2" id="gge1179" locked="0" /><polyline points="4092.244 3071.5 4085 3071.5 4085 3071.7439" stroke-width="4.02"  stroke-linecap="round" fill="none" layerid="1" net="C6_2" id="gge1173" locked="0" /><polyline points="4085 3071.744 4084.9989 3071.7451 4078.5 3071.7451" stroke-width="4.02"  stroke-linecap="round" fill="none" layerid="1" net="C6_2" id="gge1170" locked="0" /><polyline points="4078.5 3071.745 4072.6449 3071.745 4072.323 3072.0669" stroke-width="4.02"  stroke-linecap="round" fill="none" layerid="1" net="C6_2" id="gge1167" locked="0" /><polyline points="4056.5315 3071.5 4066.744 3071.5" stroke-width="4.02"  stroke-linecap="round" fill="none" layerid="1" net="RF1_5" id="gge1089" locked="0" /><polyline points="4151.5 3076 4151.4409 3076.0591 4137.103 3076.0591" stroke-width="4.02"  stroke-linecap="round" fill="none" layerid="1" net="U1_1" id="gge1212" locked="0" /><g c_partid="part_pad" c_etype="pinpart" c_origin="4072.256,3071.5" layerid="1" number="2" net="C6_2" plated ="Y"  id="gge69" locked="0" c_rotation="0" c_width="3.1496" c_height="3.5433" title="C6_2" c_shape="RECT" pasteexpansion="0.0000" solderexpansion="0.2000"><polygon  c_etype="pad_shell" points="4070.6811 3069.7283 4073.8307 3069.7283 4073.8307 3073.2717 4070.6811 3073.2717" layerid="1" stroke-width="0" /><circle c_etype="pad_hole" cx="4072.2555" cy="3071.5" r="0" layerid="1" stroke-width="0"/></g><g c_partid="part_pad" c_etype="pinpart" c_origin="4066.744,3071.5" layerid="1" number="1" net="RF1_5" plated ="Y"  id="gge78" locked="0" c_rotation="0" c_width="3.1496" c_height="3.5433" title="RF1_5" c_shape="RECT" pasteexpansion="0.0000" solderexpansion="0.2000"><polygon  c_etype="pad_shell" points="4065.1693 3069.7283 4068.3189 3069.7283 4068.3189 3073.2717 4065.1693 3073.2717" layerid="1" stroke-width="0" /><circle c_etype="pad_hole" cx="4066.7445" cy="3071.5" r="0" layerid="1" stroke-width="0"/></g><g c_partid="part_pad" c_etype="pinpart" c_origin="4085,3071.744" layerid="1" number="2" net="C6_2" plated ="Y"  id="gge153" locked="0" c_rotation="90" c_width="3.1496" c_height="3.5433" title="C6_2" c_shape="RECT" pasteexpansion="0.0000" solderexpansion="0.2000"><polygon  c_etype="pad_shell" points="4083.2283 3073.3189 4083.2283 3070.1693 4086.7717 3070.1693 4086.7717 3073.3189" layerid="1" stroke-width="0" /><circle c_etype="pad_hole" cx="4085" cy="3071.7445" r="0" layerid="1" stroke-width="0"/></g><g c_partid="part_pad" c_etype="pinpart" c_origin="4085,3077.256" layerid="1" number="1" net="GND" plated ="Y"  id="gge162" locked="0" c_rotation="90" c_width="3.1496" c_height="3.5433" title="GND" c_shape="RECT" pasteexpansion="0.0000" solderexpansion="0.2000"><polygon  c_etype="pad_shell" points="4083.2283 3078.8307 4083.2283 3075.6811 4086.7717 3075.6811 4086.7717 3078.8307" layerid="1" stroke-width="0" /><circle c_etype="pad_hole" cx="4085" cy="3077.2555" r="0" layerid="1" stroke-width="0"/></g><g c_partid="part_pad" c_etype="pinpart" c_origin="4097.756,3071.5" layerid="1" number="2" net="C8_2" plated ="Y"  id="gge237" locked="0" c_rotation="0" c_width="3.1496" c_height="3.5433" title="C8_2" c_shape="RECT" pasteexpansion="0.0000" solderexpansion="0.2000"><polygon  c_etype="pad_shell" points="4096.1811 3069.7283 4099.3307 3069.7283 4099.3307 3073.2717 4096.1811 3073.2717" layerid="1" stroke-width="0" /><circle c_etype="pad_hole" cx="4097.7555" cy="3071.5" r="0" layerid="1" stroke-width="0"/></g><g c_partid="part_pad" c_etype="pinpart" c_origin="4092.244,3071.5" layerid="1" number="1" net="C6_2" plated ="Y"  id="gge246" locked="0" c_rotation="0" c_width="3.1496" c_height="3.5433" title="C6_2" c_shape="RECT" pasteexpansion="0.0000" solderexpansion="0.2000"><polygon  c_etype="pad_shell" points="4090.6693 3069.7283 4093.8189 3069.7283 4093.8189 3073.2717 4090.6693 3073.2717" layerid="1" stroke-width="0" /><circle c_etype="pad_hole" cx="4092.2445" cy="3071.5" r="0" layerid="1" stroke-width="0"/></g><g c_partid="part_pad" c_etype="pinpart" c_origin="4104.5,3071.256" layerid="1" number="2" net="C8_2" plated ="Y"  id="gge321" locked="0" c_rotation="270" c_width="3.1496" c_height="3.5433" title="C8_2" c_shape="RECT" pasteexpansion="0.0000" solderexpansion="0.2000"><polygon  c_etype="pad_shell" points="4106.2717 3069.6811 4106.2717 3072.8307 4102.7283 3072.8307 4102.7283 3069.6811" layerid="1" stroke-width="0" /><circle c_etype="pad_hole" cx="4104.5" cy="3071.2555" r="0" layerid="1" stroke-width="0"/></g><g c_partid="part_pad" c_etype="pinpart" c_origin="4104.5,3065.744" layerid="1" number="1" net="GND" plated ="Y"  id="gge330" locked="0" c_rotation="270" c_width="3.1496" c_height="3.5433" title="GND" c_shape="RECT" pasteexpansion="0.0000" solderexpansion="0.2000"><polygon  c_etype="pad_shell" points="4106.2717 3064.1693 4106.2717 3067.3189 4102.7283 3067.3189 4102.7283 3064.1693" layerid="1" stroke-width="0" /><circle c_etype="pad_hole" cx="4104.5" cy="3065.7445" r="0" layerid="1" stroke-width="0"/></g><g c_partid="part_pad" c_etype="pinpart" c_origin="4117.244,3071" layerid="1" number="2" net="C8_2" plated ="Y"  id="gge405" locked="0" c_rotation="180" c_width="3.1496" c_height="3.5433" title="C8_2" c_shape="RECT" pasteexpansion="0.0000" solderexpansion="0.2000"><polygon  c_etype="pad_shell" points="4118.8189 3072.7717 4115.6693 3072.7717 4115.6693 3069.2283 4118.8189 3069.2283" layerid="1" stroke-width="0" /><circle c_etype="pad_hole" cx="4117.2445" cy="3071" r="0" layerid="1" stroke-width="0"/></g><g c_partid="part_pad" c_etype="pinpart" c_origin="4122.756,3071" layerid="1" number="1" net="C10_1" plated ="Y"  id="gge414" locked="0" c_rotation="180" c_width="3.1496" c_height="3.5433" title="C10_1" c_shape="RECT" pasteexpansion="0.0000" solderexpansion="0.2000"><polygon  c_etype="pad_shell" points="4124.3307 3072.7717 4121.1811 3072.7717 4121.1811 3069.2283 4124.3307 3069.2283" layerid="1" stroke-width="0" /><circle c_etype="pad_hole" cx="4122.7555" cy="3071" r="0" layerid="1" stroke-width="0"/></g><g c_partid="part_pad" c_etype="pinpart" c_origin="4078.5,3071.7445" layerid="1" number="1" net="C6_2" plated ="Y"  id="gge483" locked="0" c_rotation="90" c_width="3.1496" c_height="3.4016" title="C6_2" c_shape="RECT" pasteexpansion="-393.7008" solderexpansion="0.2000"><polygon  c_etype="pad_shell" points="4076.7997 3073.3189 4076.7997 3070.1693 4080.2013 3070.1693 4080.2013 3073.3189" layerid="1" stroke-width="0" /><circle c_etype="pad_hole" cx="4078.5005" cy="3071.7445" r="0" layerid="1" stroke-width="0"/></g><g c_partid="part_pad" c_etype="pinpart" c_origin="4078.5,3077.2555" layerid="1" number="2" net="GND" plated ="Y"  id="gge492" locked="0" c_rotation="90" c_width="3.1496" c_height="3.4016" title="GND" c_shape="RECT" pasteexpansion="-393.7008" solderexpansion="0.2000"><polygon  c_etype="pad_shell" points="4076.7997 3078.8307 4076.7997 3075.6811 4080.2013 3075.6811 4080.2013 3078.8307" layerid="1" stroke-width="0" /><circle c_etype="pad_hole" cx="4078.5005" cy="3077.2555" r="0" layerid="1" stroke-width="0"/></g><g c_partid="part_pad" c_etype="pinpart" c_origin="4111,3071.2555" layerid="1" number="1" net="C8_2" plated ="Y"  id="gge561" locked="0" c_rotation="270" c_width="3.1496" c_height="3.4016" title="C8_2" c_shape="RECT" pasteexpansion="-393.7008" solderexpansion="0.2000"><polygon  c_etype="pad_shell" points="4112.7003 3069.6811 4112.7003 3072.8307 4109.2987 3072.8307 4109.2987 3069.6811" layerid="1" stroke-width="0" /><circle c_etype="pad_hole" cx="4110.9995" cy="3071.2555" r="0" layerid="1" stroke-width="0"/></g><g c_partid="part_pad" c_etype="pinpart" c_origin="4111,3065.7445" layerid="1" number="2" net="GND" plated ="Y"  id="gge570" locked="0" c_rotation="270" c_width="3.1496" c_height="3.4016" title="GND" c_shape="RECT" pasteexpansion="-393.7008" solderexpansion="0.2000"><polygon  c_etype="pad_shell" points="4112.7003 3064.1693 4112.7003 3067.3189 4109.2987 3067.3189 4109.2987 3064.1693" layerid="1" stroke-width="0" /><circle c_etype="pad_hole" cx="4110.9995" cy="3065.7445" r="0" layerid="1" stroke-width="0"/></g><g c_partid="part_pad" c_etype="pinpart" c_origin="4056.5315,3071.5" layerid="1" number="5" net="RF1_5" plated ="Y"  id="gge705" locked="0" c_rotation="90" c_width="3.937" c_height="11.811" title="RF1_5" c_shape="RECT" pasteexpansion="0" solderexpansion="0.2"><polygon  c_etype="pad_shell" points="4050.626 3073.4685 4050.626 3069.5315 4062.437 3069.5315 4062.437 3073.4685" layerid="1" stroke-width="0" /><circle c_etype="pad_hole" cx="4056.5315" cy="3071.5" r="0" layerid="1" stroke-width="0"/></g><g c_partid="part_pad" c_etype="pinpart" c_origin="4060.4685,3088.193" layerid="1" number="1" net="GND" plated ="Y"  id="gge714" locked="0" c_rotation="90" c_width="5.1181" c_height="19.685" title="GND" c_shape="RECT" pasteexpansion="0" solderexpansion="0.2"><polygon  c_etype="pad_shell" points="4050.626 3090.752 4050.626 3085.6339 4070.311 3085.6339 4070.311 3090.752" layerid="1" stroke-width="0" /><circle c_etype="pad_hole" cx="4060.4685" cy="3088.1929" r="0" layerid="1" stroke-width="0"/></g><g c_partid="part_pad" c_etype="pinpart" c_origin="4060.4685,3054.807" layerid="1" number="2" net="GND" plated ="Y"  id="gge723" locked="0" c_rotation="90" c_width="5.1181" c_height="19.685" title="GND" c_shape="RECT" pasteexpansion="0" solderexpansion="0.2"><polygon  c_etype="pad_shell" points="4050.626 3057.3661 4050.626 3052.248 4070.311 3052.248 4070.311 3057.3661" layerid="1" stroke-width="0" /><circle c_etype="pad_hole" cx="4060.4685" cy="3054.807" r="0" layerid="1" stroke-width="0"/></g><g c_partid="part_pad" c_etype="pinpart" c_origin="4151.5,3088.303" layerid="1" number="3" net="GND" plated ="Y"  id="gge864" locked="0" c_rotation="270" c_width="3.937" c_height="19.685" title="GND" c_shape="RECT" pasteexpansion="0" solderexpansion="0.2"><polygon  c_etype="pad_shell" points="4161.3425 3086.3346 4161.3425 3090.2717 4141.6575 3090.2717 4141.6575 3086.3346" layerid="1" stroke-width="0" /><circle c_etype="pad_hole" cx="4151.5" cy="3088.3031" r="0" layerid="1" stroke-width="0"/></g><g c_partid="part_pad" c_etype="pinpart" c_origin="4151.5,3063.697" layerid="1" number="2" net="GND" plated ="Y"  id="gge873" locked="0" c_rotation="270" c_width="3.937" c_height="19.685" title="GND" c_shape="RECT" pasteexpansion="0" solderexpansion="0.2"><polygon  c_etype="pad_shell" points="4161.3425 3061.7283 4161.3425 3065.6654 4141.6575 3065.6654 4141.6575 3061.7283" layerid="1" stroke-width="0" /><circle c_etype="pad_hole" cx="4151.5" cy="3063.6969" r="0" layerid="1" stroke-width="0"/></g><g c_partid="part_pad" c_etype="pinpart" c_origin="4151.5,3076" layerid="1" number="1" net="U1_1" plated ="Y"  id="gge882" locked="0" c_rotation="270" c_width="5.9055" c_height="19.685" title="U1_1" c_shape="RECT" pasteexpansion="0" solderexpansion="0.2"><polygon  c_etype="pad_shell" points="4161.3425 3073.0472 4161.3425 3078.9528 4141.6575 3078.9528 4141.6575 3073.0472" layerid="1" stroke-width="0" /><circle c_etype="pad_hole" cx="4151.5" cy="3076" r="0" layerid="1" stroke-width="0"/></g><g c_partid="part_pad" c_etype="pinpart" c_origin="4137.1025,3076.059" layerid="1" number="1" net="U1_1" plated ="Y"  id="gge957" locked="0" c_rotation="90" c_width="2.36" c_height="3.15" title="U1_1" c_shape="RECT" pasteexpansion="0" solderexpansion="0.2"><polygon  c_etype="pad_shell" points="4135.5295 3077.2391 4135.5295 3074.8791 4138.6745 3074.8791 4138.6745 3077.2391" layerid="1" stroke-width="0" /><circle c_etype="pad_hole" cx="4137.1025" cy="3076.0591" r="0" layerid="1" stroke-width="0"/></g><g c_partid="part_pad" c_etype="pinpart" c_origin="4137.1025,3071.531" layerid="1" number="2" net="GND" plated ="Y"  id="gge966" locked="0" c_rotation="90" c_width="3.54" c_height="3.15" title="GND" c_shape="RECT" pasteexpansion="0" solderexpansion="0.2"><polygon  c_etype="pad_shell" points="4135.5295 3073.3009 4135.5295 3069.7609 4138.6745 3069.7609 4138.6745 3073.3009" layerid="1" stroke-width="0" /><circle c_etype="pad_hole" cx="4137.1025" cy="3071.5309" r="0" layerid="1" stroke-width="0"/></g><g c_partid="part_pad" c_etype="pinpart" c_origin="4130.8975,3070.941" layerid="1" number="3" net="C10_1" plated ="Y"  id="gge975" locked="0" c_rotation="90" c_width="2.36" c_height="3.15" title="C10_1" c_shape="RECT" pasteexpansion="0" solderexpansion="0.2"><polygon  c_etype="pad_shell" points="4129.3245 3072.1209 4129.3245 3069.7609 4132.4695 3069.7609 4132.4695 3072.1209" layerid="1" stroke-width="0" /><circle c_etype="pad_hole" cx="4130.8975" cy="3070.9409" r="0" layerid="1" stroke-width="0"/></g><g c_partid="part_pad" c_etype="pinpart" c_origin="4130.8975,3076.059" layerid="1" number="4" net="GND" plated ="Y"  id="gge984" locked="0" c_rotation="90" c_width="2.36" c_height="3.15" title="GND" c_shape="RECT" pasteexpansion="0" solderexpansion="0.2"><polygon  c_etype="pad_shell" points="4129.3245 3077.2391 4129.3245 3074.8791 4132.4695 3074.8791 4132.4695 3077.2391" layerid="1" stroke-width="0" /><circle c_etype="pad_hole" cx="4130.8975" cy="3076.0591" r="0" layerid="1" stroke-width="0"/></g><polyline points="4074.9725 3069.9261 4074.9725 3073.0758" stroke-width="1"  stroke-linecap="round" fill="none" layerid="3" net="" id="gge30" locked="0" /><polyline points="4070.6034 3068.7062 4073.7529 3068.7062" stroke-width="1"  stroke-linecap="round" fill="none" layerid="3" net="" id="gge33" locked="0" /><polyline points="4070.6034 3074.2954 4073.7529 3074.2954" stroke-width="1"  stroke-linecap="round" fill="none" layerid="3" net="" id="gge36" locked="0" /><polyline points="4068.3361 3068.6833 4065.1865 3068.6833" stroke-width="1"  stroke-linecap="round" fill="none" layerid="3" net="" id="gge39" locked="0" /><polyline points="4063.9667 3069.9031 4063.9667 3073.0526" stroke-width="1"  stroke-linecap="round" fill="none" layerid="3" net="" id="gge42" locked="0" /><polyline points="4068.3361 3074.2723 4065.1865 3074.2723" stroke-width="1"  stroke-linecap="round" fill="none" layerid="3" net="" id="gge45" locked="0" /><polyline points="4083.4261 3069.0275 4086.5758 3069.0275" stroke-width="1"  stroke-linecap="round" fill="none" layerid="3" net="" id="gge114" locked="0" /><polyline points="4082.2062 3073.3966 4082.2062 3070.2471" stroke-width="1"  stroke-linecap="round" fill="none" layerid="3" net="" id="gge117" locked="0" /><polyline points="4087.7954 3073.3966 4087.7954 3070.2471" stroke-width="1"  stroke-linecap="round" fill="none" layerid="3" net="" id="gge120" locked="0" /><polyline points="4082.1833 3075.6639 4082.1833 3078.8135" stroke-width="1"  stroke-linecap="round" fill="none" layerid="3" net="" id="gge123" locked="0" /><polyline points="4083.4031 3080.0333 4086.5526 3080.0333" stroke-width="1"  stroke-linecap="round" fill="none" layerid="3" net="" id="gge126" locked="0" /><polyline points="4087.7723 3075.6639 4087.7723 3078.8135" stroke-width="1"  stroke-linecap="round" fill="none" layerid="3" net="" id="gge129" locked="0" /><polyline points="4100.4725 3069.9261 4100.4725 3073.0758" stroke-width="1"  stroke-linecap="round" fill="none" layerid="3" net="" id="gge198" locked="0" /><polyline points="4096.1034 3068.7062 4099.2529 3068.7062" stroke-width="1"  stroke-linecap="round" fill="none" layerid="3" net="" id="gge201" locked="0" /><polyline points="4096.1034 3074.2954 4099.2529 3074.2954" stroke-width="1"  stroke-linecap="round" fill="none" layerid="3" net="" id="gge204" locked="0" /><polyline points="4093.8361 3068.6833 4090.6865 3068.6833" stroke-width="1"  stroke-linecap="round" fill="none" layerid="3" net="" id="gge207" locked="0" /><polyline points="4089.4667 3069.9031 4089.4667 3073.0526" stroke-width="1"  stroke-linecap="round" fill="none" layerid="3" net="" id="gge210" locked="0" /><polyline points="4093.8361 3074.2723 4090.6865 3074.2723" stroke-width="1"  stroke-linecap="round" fill="none" layerid="3" net="" id="gge213" locked="0" /><polyline points="4106.0739 3073.9725 4102.9242 3073.9725" stroke-width="1"  stroke-linecap="round" fill="none" layerid="3" net="" id="gge282" locked="0" /><polyline points="4107.2938 3069.6034 4107.2938 3072.7529" stroke-width="1"  stroke-linecap="round" fill="none" layerid="3" net="" id="gge285" locked="0" /><polyline points="4101.7046 3069.6034 4101.7046 3072.7529" stroke-width="1"  stroke-linecap="round" fill="none" layerid="3" net="" id="gge288" locked="0" /><polyline points="4107.3167 3067.3361 4107.3167 3064.1865" stroke-width="1"  stroke-linecap="round" fill="none" layerid="3" net="" id="gge291" locked="0" /><polyline points="4106.0969 3062.9667 4102.9474 3062.9667" stroke-width="1"  stroke-linecap="round" fill="none" layerid="3" net="" id="gge294" locked="0" /><polyline points="4101.7277 3067.3361 4101.7277 3064.1865" stroke-width="1"  stroke-linecap="round" fill="none" layerid="3" net="" id="gge297" locked="0" /><polyline points="4114.5275 3072.5739 4114.5275 3069.4242" stroke-width="1"  stroke-linecap="round" fill="none" layerid="3" net="" id="gge366" locked="0" /><polyline points="4118.8966 3073.7938 4115.7471 3073.7938" stroke-width="1"  stroke-linecap="round" fill="none" layerid="3" net="" id="gge369" locked="0" /><polyline points="4118.8966 3068.2046 4115.7471 3068.2046" stroke-width="1"  stroke-linecap="round" fill="none" layerid="3" net="" id="gge372" locked="0" /><polyline points="4121.1639 3073.8167 4124.3135 3073.8167" stroke-width="1"  stroke-linecap="round" fill="none" layerid="3" net="" id="gge375" locked="0" /><polyline points="4125.5333 3072.5969 4125.5333 3069.4474" stroke-width="1"  stroke-linecap="round" fill="none" layerid="3" net="" id="gge378" locked="0" /><polyline points="4121.1639 3068.2277 4124.3135 3068.2277" stroke-width="1"  stroke-linecap="round" fill="none" layerid="3" net="" id="gge381" locked="0" /><polyline points="4075.9356 3069.4934 4075.9356 3072.4934" stroke-width="0.5984"  stroke-linecap="round" fill="none" layerid="3" net="" id="gge456" locked="0" /><polyline points="4075.9356 3079.4541 4075.9356 3076.4541" stroke-width="0.5984"  stroke-linecap="round" fill="none" layerid="3" net="" id="gge459" locked="0" /><polyline points="4081.1372 3079.4541 4081.1372 3076.4541" stroke-width="0.5984"  stroke-linecap="round" fill="none" layerid="3" net="" id="gge462" locked="0" /><polyline points="4081.1372 3079.4541 4080.5371 3080.0537 4076.5354 3080.0537 4075.9356 3079.4541" stroke-width="0.6"  stroke-linecap="round" fill="none" layerid="3" net="" id="gge465" locked="0" /><polyline points="4081.1372 3069.4934 4081.1372 3072.4934" stroke-width="0.5984"  stroke-linecap="round" fill="none" layerid="3" net="" id="gge468" locked="0" /><polyline points="4075.9356 3069.4934 4076.5354 3068.8933 4080.5371 3068.8933 4081.1372 3069.4934" stroke-width="0.6"  stroke-linecap="round" fill="none" layerid="3" net="" id="gge471" locked="0" /><polyline points="4113.5644 3073.5066 4113.5644 3070.5066" stroke-width="0.5984"  stroke-linecap="round" fill="none" layerid="3" net="" id="gge534" locked="0" /><polyline points="4113.5644 3063.5459 4113.5644 3066.5459" stroke-width="0.5984"  stroke-linecap="round" fill="none" layerid="3" net="" id="gge537" locked="0" /><polyline points="4108.3628 3063.5459 4108.3628 3066.5459" stroke-width="0.5984"  stroke-linecap="round" fill="none" layerid="3" net="" id="gge540" locked="0" /><polyline points="4108.3628 3063.5459 4108.9629 3062.9463 4112.9646 3062.9463 4113.5644 3063.5459" stroke-width="0.6"  stroke-linecap="round" fill="none" layerid="3" net="" id="gge543" locked="0" /><polyline points="4108.3628 3073.5066 4108.3628 3070.5066" stroke-width="0.5984"  stroke-linecap="round" fill="none" layerid="3" net="" id="gge546" locked="0" /><polyline points="4113.5644 3073.5066 4112.9646 3074.1067 4108.9629 3074.1067 4108.3628 3073.5066" stroke-width="0.6"  stroke-linecap="round" fill="none" layerid="3" net="" id="gge549" locked="0" /><polyline points="4049.9685 3090.2008 4049.9685 3052.7992" stroke-width="1"  stroke-linecap="round" fill="none" layerid="3" net="" id="gge618" locked="0" /><polyline points="4018.8166 3060.9685 4018.7796 3082.0315" stroke-width="1"  stroke-linecap="round" fill="none" layerid="3" net="" id="gge621" locked="0" /><polyline points="4018.6833 3082.0315 4016.0166 3060.9685" stroke-width="1"  stroke-linecap="round" fill="none" layerid="3" net="" id="gge624" locked="0" /><polyline points="4016.0166 3060.9685 4015.9796 3082.0315" stroke-width="1"  stroke-linecap="round" fill="none" layerid="3" net="" id="gge627" locked="0" /><polyline points="4012.0551 3082.0315 4041.9685 3082.0315" stroke-width="1"  stroke-linecap="round" fill="none" layerid="3" net="" id="gge630" locked="0" /><polyline points="4021.4833 3082.0315 4018.8166 3060.9685" stroke-width="1"  stroke-linecap="round" fill="none" layerid="3" net="" id="gge633" locked="0" /><polyline points="4024.2481 3060.9685 4024.2111 3082.0315" stroke-width="1"  stroke-linecap="round" fill="none" layerid="3" net="" id="gge636" locked="0" /><polyline points="4024.1833 3082.0315 4021.5166 3060.9685" stroke-width="1"  stroke-linecap="round" fill="none" layerid="3" net="" id="gge639" locked="0" /><polyline points="4021.5166 3060.9685 4021.4796 3082.0315" stroke-width="1"  stroke-linecap="round" fill="none" layerid="3" net="" id="gge642" locked="0" /><polyline points="4026.9148 3082.0315 4024.2481 3060.9685" stroke-width="1"  stroke-linecap="round" fill="none" layerid="3" net="" id="gge645" locked="0" /><polyline points="4029.6555 3060.9685 4029.6185 3082.0315" stroke-width="1"  stroke-linecap="round" fill="none" layerid="3" net="" id="gge648" locked="0" /><polyline points="4029.5815 3082.0315 4026.9148 3060.9685" stroke-width="1"  stroke-linecap="round" fill="none" layerid="3" net="" id="gge651" locked="0" /><polyline points="4026.9148 3060.9685 4026.8778 3082.0315" stroke-width="1"  stroke-linecap="round" fill="none" layerid="3" net="" id="gge654" locked="0" /><polyline points="4032.3222 3082.0315 4029.6555 3060.9685" stroke-width="1"  stroke-linecap="round" fill="none" layerid="3" net="" id="gge657" locked="0" /><polyline points="4032.4037 3082.0315 4032.4037 3060.9685" stroke-width="1"  stroke-linecap="round" fill="none" layerid="3" net="" id="gge660" locked="0" /><polyline points="4012.0551 3060.9685 4012.0551 3082.0315" stroke-width="1"  stroke-linecap="round" fill="none" layerid="3" net="" id="gge663" locked="0" /><polyline points="4012.0551 3060.9685 4041.9685 3060.9685" stroke-width="1"  stroke-linecap="round" fill="none" layerid="3" net="" id="gge666" locked="0" /><polyline points="4049.9685 3052.7992 4041.9685 3052.7992 4041.9685 3090.2008" stroke-width="1"  stroke-linecap="round" fill="none" layerid="3" net="" id="gge669" locked="0" /><polyline points="4049.9685 3090.2008 4041.9685 3090.2008" stroke-width="1"  stroke-linecap="round" fill="none" layerid="3" net="" id="gge672" locked="0" /><polyline points="4049.9685 3071.3759 4042.0945 3071.3759" stroke-width="1"  stroke-linecap="round" fill="none" layerid="3" net="" id="gge675" locked="0" /><polyline points="4165.4 3086.5 4165.4 3087 4195.78 3087 4195.78 3065 4195.8 3065" stroke-width="1"  stroke-linecap="round" fill="none" layerid="3" net="" id="gge771" locked="0" /><polyline points="4165.4 3065 4195.8346 3065" stroke-width="1"  stroke-linecap="round" fill="none" layerid="3" net="" id="gge774" locked="0" /><polyline points="4160.3117 3080.2484 4160.3117 3084.8912" stroke-width="1"  stroke-linecap="round" fill="none" layerid="3" net="" id="gge777" locked="0" /><polyline points="4160.3117 3066.6055 4160.3117 3071.8198" stroke-width="1"  stroke-linecap="round" fill="none" layerid="3" net="" id="gge780" locked="0" /><polyline points="4165.3978 3061.9702 4162.3031 3061.9702" stroke-width="1"  stroke-linecap="round" fill="none" layerid="3" net="" id="gge783" locked="0" /><polyline points="4165.4 3089.5225 4162.3053 3089.5225" stroke-width="1"  stroke-linecap="round" fill="none" layerid="3" net="" id="gge786" locked="0" /><polyline points="4165.4 3089.5225 4165.4 3061.9634" stroke-width="1"  stroke-linecap="round" fill="none" layerid="3" net="" id="gge789" locked="0" /><polyline points="4181.5469 3065 4181.5469 3086.5" stroke-width="1"  stroke-linecap="round" fill="none" layerid="3" net="" id="gge792" locked="0" /><polyline points="4181.5469 3086.5 4178.761 3065" stroke-width="1"  stroke-linecap="round" fill="none" layerid="3" net="" id="gge795" locked="0" /><polyline points="4178.761 3065 4178.761 3086.5" stroke-width="1"  stroke-linecap="round" fill="none" layerid="3" net="" id="gge798" locked="0" /><polyline points="4184.3326 3065 4184.3326 3086.5" stroke-width="1"  stroke-linecap="round" fill="none" layerid="3" net="" id="gge801" locked="0" /><polyline points="4184.3326 3065 4184.3326 3086.5" stroke-width="1"  stroke-linecap="round" fill="none" layerid="3" net="" id="gge804" locked="0" /><polyline points="4184.3326 3086.5 4181.5469 3065" stroke-width="1"  stroke-linecap="round" fill="none" layerid="3" net="" id="gge807" locked="0" /><polyline points="4181.5469 3065 4181.5469 3086.5" stroke-width="1"  stroke-linecap="round" fill="none" layerid="3" net="" id="gge810" locked="0" /><polyline points="4187.1182 3065 4187.1182 3086.5" stroke-width="1"  stroke-linecap="round" fill="none" layerid="3" net="" id="gge813" locked="0" /><polyline points="4187.1182 3086.5 4184.3326 3065" stroke-width="1"  stroke-linecap="round" fill="none" layerid="3" net="" id="gge816" locked="0" /><polyline points="4189.9039 3065 4189.9039 3086.5" stroke-width="1"  stroke-linecap="round" fill="none" layerid="3" net="" id="gge819" locked="0" /><polyline points="4189.9039 3065 4189.9039 3086.5" stroke-width="1"  stroke-linecap="round" fill="none" layerid="3" net="" id="gge822" locked="0" /><polyline points="4189.9039 3086.5 4187.1182 3065" stroke-width="1"  stroke-linecap="round" fill="none" layerid="3" net="" id="gge825" locked="0" /><polyline points="4187.1182 3065 4187.1182 3086.5" stroke-width="1"  stroke-linecap="round" fill="none" layerid="3" net="" id="gge828" locked="0" /><polyline points="4192.6897 3086.5 4189.9039 3065" stroke-width="1"  stroke-linecap="round" fill="none" layerid="3" net="" id="gge831" locked="0" /><polyline points="4192.6897 3065 4192.6897 3086.5" stroke-width="1"  stroke-linecap="round" fill="none" layerid="3" net="" id="gge834" locked="0" /><polyline points="4136.7559 3078.2244 4131.1559 3078.2244" stroke-width="1"  stroke-linecap="round" fill="none" layerid="3" net="" id="gge918" locked="0" /><polyline points="4136.7559 3068.7756 4131.1559 3068.7756" stroke-width="1"  stroke-linecap="round" fill="none" layerid="3" net="" id="gge921" locked="0" /><g c_partid="part_pcbtext" c_etype="" c_origin="4068.5,3060.5" c_rotation="0" c_mirror="" id="gge9" locked="0" layerid="3" c_shapetype="group" display="none"><path c_fontsize="4.5" c_fontfamily="" c_text="4.7p" d="M 4070.55 3055.96 L 4068.5 3058.82 L 4071.57 3058.82 M 4070.55 3055.96 L 4070.55 3060.25 M 4073.12 3059.23 L 4072.92 3059.44 L 4073.12 3059.64 L 4073.33 3059.44 L 4073.12 3059.23 M 4077.54 3055.96 L 4075.5 3060.25 M 4074.68 3055.96 L 4077.54 3055.96 M 4078.89 3057.39 L 4078.89 3061.69 M 4078.89 3058 L 4079.3 3057.6 L 4079.71 3057.39 L 4080.32 3057.39 L 4080.73 3057.6 L 4081.14 3058 L 4081.35 3058.62 L 4081.35 3059.03 L 4081.14 3059.64 L 4080.73 3060.05 L 4080.32 3060.25 L 4079.71 3060.25 L 4079.3 3060.05 L 4078.89 3059.64" fill="none"  stroke-width="0.6" c_note="note_name" /></g><g c_partid="part_pcbtext" c_etype="" c_origin="4066,3067" c_rotation="0" c_mirror="" id="gge15" locked="0" layerid="3" c_shapetype="group" ><path c_fontsize="4.5" c_fontfamily="" c_text="C6" d="M 4069.07 3063.48 L 4068.86 3063.07 L 4068.45 3062.66 L 4068.05 3062.46 L 4067.23 3062.46 L 4066.82 3062.66 L 4066.41 3063.07 L 4066.2 3063.48 L 4066 3064.1 L 4066 3065.12 L 4066.2 3065.73 L 4066.41 3066.14 L 4066.82 3066.55 L 4067.23 3066.75 L 4068.05 3066.75 L 4068.45 3066.55 L 4068.86 3066.14 L 4069.07 3065.73 M 4072.87 3063.07 L 4072.67 3062.66 L 4072.05 3062.46 L 4071.65 3062.46 L 4071.03 3062.66 L 4070.62 3063.28 L 4070.42 3064.3 L 4070.42 3065.32 L 4070.62 3066.14 L 4071.03 3066.55 L 4071.65 3066.75 L 4071.85 3066.75 L 4072.46 3066.55 L 4072.87 3066.14 L 4073.08 3065.53 L 4073.08 3065.32 L 4072.87 3064.71 L 4072.46 3064.3 L 4071.85 3064.1 L 4071.65 3064.1 L 4071.03 3064.3 L 4070.62 3064.71 L 4070.42 3065.32" fill="none"  stroke-width="0.6" c_note="note_pre" /></g><g c_partid="part_pcbtext" c_etype="" c_origin="4074,3075.5" c_rotation="90" c_mirror="" id="gge93" locked="0" layerid="3" c_shapetype="group" display="none"><path c_fontsize="4.5" c_fontfamily="" c_text="8.2p" d="M 4069.46 3074.48 L 4069.66 3075.09 L 4070.07 3075.3 L 4070.48 3075.3 L 4070.89 3075.09 L 4071.1 3074.68 L 4071.3 3073.86 L 4071.5 3073.25 L 4071.91 3072.84 L 4072.32 3072.64 L 4072.94 3072.64 L 4073.35 3072.84 L 4073.55 3073.05 L 4073.75 3073.66 L 4073.75 3074.48 L 4073.55 3075.09 L 4073.35 3075.3 L 4072.94 3075.5 L 4072.32 3075.5 L 4071.91 3075.3 L 4071.5 3074.89 L 4071.3 3074.27 L 4071.1 3073.45 L 4070.89 3073.05 L 4070.48 3072.84 L 4070.07 3072.84 L 4069.66 3073.05 L 4069.46 3073.66 L 4069.46 3074.48 M 4072.73 3071.08 L 4072.94 3071.29 L 4073.14 3071.08 L 4072.94 3070.88 L 4072.73 3071.08 M 4070.48 3069.32 L 4070.28 3069.32 L 4069.87 3069.12 L 4069.66 3068.91 L 4069.46 3068.5 L 4069.46 3067.69 L 4069.66 3067.28 L 4069.87 3067.07 L 4070.28 3066.87 L 4070.69 3066.87 L 4071.1 3067.07 L 4071.71 3067.48 L 4073.75 3069.53 L 4073.75 3066.66 M 4070.89 3065.31 L 4075.19 3065.31 M 4071.5 3065.31 L 4071.1 3064.9 L 4070.89 3064.5 L 4070.89 3063.88 L 4071.1 3063.47 L 4071.5 3063.06 L 4072.12 3062.86 L 4072.53 3062.86 L 4073.14 3063.06 L 4073.55 3063.47 L 4073.75 3063.88 L 4073.75 3064.5 L 4073.55 3064.9 L 4073.14 3065.31" fill="none"  stroke-width="0.6" c_note="note_name" /></g><g c_partid="part_pcbtext" c_etype="" c_origin="4087.5,3066.5" c_rotation="90" c_mirror="" id="gge99" locked="0" layerid="3" c_shapetype="group" ><path c_fontsize="4.5" c_fontfamily="" c_text="C7" d="M 4083.98 3063.43 L 4083.57 3063.64 L 4083.16 3064.05 L 4082.96 3064.45 L 4082.96 3065.27 L 4083.16 3065.68 L 4083.57 3066.09 L 4083.98 3066.3 L 4084.6 3066.5 L 4085.62 3066.5 L 4086.23 3066.3 L 4086.64 3066.09 L 4087.05 3065.68 L 4087.25 3065.27 L 4087.25 3064.45 L 4087.05 3064.05 L 4086.64 3063.64 L 4086.23 3063.43 M 4082.96 3059.22 L 4087.25 3061.26 M 4082.96 3062.08 L 4082.96 3059.22" fill="none"  stroke-width="0.6" c_note="note_pre" /></g><g c_partid="part_pcbtext" c_etype="" c_origin="4094,3060.5" c_rotation="0" c_mirror="" id="gge177" locked="0" layerid="3" c_shapetype="group" display="none"><path c_fontsize="4.5" c_fontfamily="" c_text="1p" d="M 4094 3056.78 L 4094.41 3056.57 L 4095.02 3055.96 L 4095.02 3060.25 M 4096.37 3057.39 L 4096.37 3061.69 M 4096.37 3058 L 4096.78 3057.6 L 4097.19 3057.39 L 4097.8 3057.39 L 4098.21 3057.6 L 4098.62 3058 L 4098.83 3058.62 L 4098.83 3059.03 L 4098.62 3059.64 L 4098.21 3060.05 L 4097.8 3060.25 L 4097.19 3060.25 L 4096.78 3060.05 L 4096.37 3059.64" fill="none"  stroke-width="0.6" c_note="note_name" /></g><g c_partid="part_pcbtext" c_etype="" c_origin="4089,3067.5" c_rotation="0" c_mirror="" id="gge183" locked="0" layerid="3" c_shapetype="group" ><path c_fontsize="4.5" c_fontfamily="" c_text="C8" d="M 4092.07 3063.98 L 4091.86 3063.57 L 4091.45 3063.16 L 4091.05 3062.96 L 4090.23 3062.96 L 4089.82 3063.16 L 4089.41 3063.57 L 4089.2 3063.98 L 4089 3064.6 L 4089 3065.62 L 4089.2 3066.23 L 4089.41 3066.64 L 4089.82 3067.05 L 4090.23 3067.25 L 4091.05 3067.25 L 4091.45 3067.05 L 4091.86 3066.64 L 4092.07 3066.23 M 4094.44 3062.96 L 4093.83 3063.16 L 4093.62 3063.57 L 4093.62 3063.98 L 4093.83 3064.39 L 4094.24 3064.6 L 4095.05 3064.8 L 4095.67 3065 L 4096.08 3065.41 L 4096.28 3065.82 L 4096.28 3066.44 L 4096.08 3066.85 L 4095.87 3067.05 L 4095.26 3067.25 L 4094.44 3067.25 L 4093.83 3067.05 L 4093.62 3066.85 L 4093.42 3066.44 L 4093.42 3065.82 L 4093.62 3065.41 L 4094.03 3065 L 4094.65 3064.8 L 4095.46 3064.6 L 4095.87 3064.39 L 4096.08 3063.98 L 4096.08 3063.57 L 4095.87 3063.16 L 4095.26 3062.96 L 4094.44 3062.96" fill="none"  stroke-width="0.6" c_note="note_pre" /></g><g c_partid="part_pcbtext" c_etype="" c_origin="4118.8501,3080.1401" c_rotation="90" c_mirror="" id="gge261" locked="0" layerid="3" c_shapetype="group" display="none"><path c_fontsize="4.5" c_fontfamily="" c_text="8.2p" d="M 4114.3101 3079.1201 L 4114.5101 3079.7301 L 4114.9201 3079.9401 L 4115.3301 3079.9401 L 4115.7401 3079.7301 L 4115.9501 3079.3201 L 4116.1501 3078.5001 L 4116.3501 3077.8901 L 4116.7601 3077.4801 L 4117.1701 3077.2801 L 4117.7901 3077.2801 L 4118.2001 3077.4801 L 4118.4001 3077.6901 L 4118.6001 3078.3001 L 4118.6001 3079.1201 L 4118.4001 3079.7301 L 4118.2001 3079.9401 L 4117.7901 3080.1401 L 4117.1701 3080.1401 L 4116.7601 3079.9401 L 4116.3501 3079.5301 L 4116.1501 3078.9101 L 4115.9501 3078.0901 L 4115.7401 3077.6901 L 4115.3301 3077.4801 L 4114.9201 3077.4801 L 4114.5101 3077.6901 L 4114.3101 3078.3001 L 4114.3101 3079.1201 M 4117.5801 3075.7201 L 4117.7901 3075.9301 L 4117.9901 3075.7201 L 4117.7901 3075.5201 L 4117.5801 3075.7201 M 4115.3301 3073.9601 L 4115.1301 3073.9601 L 4114.7201 3073.7601 L 4114.5101 3073.5501 L 4114.3101 3073.1401 L 4114.3101 3072.3301 L 4114.5101 3071.9201 L 4114.7201 3071.7101 L 4115.1301 3071.5101 L 4115.5401 3071.5101 L 4115.9501 3071.7101 L 4116.5601 3072.1201 L 4118.6001 3074.1701 L 4118.6001 3071.3001 M 4115.7401 3069.9501 L 4120.0401 3069.9501 M 4116.3501 3069.9501 L 4115.9501 3069.5401 L 4115.7401 3069.1401 L 4115.7401 3068.5201 L 4115.9501 3068.1101 L 4116.3501 3067.7001 L 4116.9701 3067.5001 L 4117.3801 3067.5001 L 4117.9901 3067.7001 L 4118.4001 3068.1101 L 4118.6001 3068.5201 L 4118.6001 3069.1401 L 4118.4001 3069.5401 L 4117.9901 3069.9501" fill="none"  stroke-width="0.6" c_note="note_name" /></g><g c_partid="part_pcbtext" c_etype="" c_origin="4102,3075.5" c_rotation="270" c_mirror="" id="gge267" locked="0" layerid="3" c_shapetype="group" ><path c_fontsize="4.5" c_fontfamily="" c_text="C9" d="M 4105.52 3078.57 L 4105.93 3078.36 L 4106.34 3077.95 L 4106.54 3077.55 L 4106.54 3076.73 L 4106.34 3076.32 L 4105.93 3075.91 L 4105.52 3075.7 L 4104.9 3075.5 L 4103.88 3075.5 L 4103.27 3075.7 L 4102.86 3075.91 L 4102.45 3076.32 L 4102.25 3076.73 L 4102.25 3077.55 L 4102.45 3077.95 L 4102.86 3078.36 L 4103.27 3078.57 M 4105.11 3082.58 L 4104.5 3082.37 L 4104.09 3081.96 L 4103.88 3081.35 L 4103.88 3081.15 L 4104.09 3080.53 L 4104.5 3080.12 L 4105.11 3079.92 L 4105.31 3079.92 L 4105.93 3080.12 L 4106.34 3080.53 L 4106.54 3081.15 L 4106.54 3081.35 L 4106.34 3081.96 L 4105.93 3082.37 L 4105.11 3082.58 L 4104.09 3082.58 L 4103.06 3082.37 L 4102.45 3081.96 L 4102.25 3081.35 L 4102.25 3080.94 L 4102.45 3080.33 L 4102.86 3080.12" fill="none"  stroke-width="0.6" c_note="note_pre" /></g><g c_partid="part_pcbtext" c_etype="" c_origin="4108.1499,3085.3501" c_rotation="0" c_mirror="" id="gge345" locked="0" layerid="3" c_shapetype="group" display="none"><path c_fontsize="4.5" c_fontfamily="" c_text="4.7p" d="M 4110.1999 3080.8101 L 4108.1499 3083.6701 L 4111.2199 3083.6701 M 4110.1999 3080.8101 L 4110.1999 3085.1001 M 4112.7699 3084.0801 L 4112.5699 3084.2901 L 4112.7699 3084.4901 L 4112.9799 3084.2901 L 4112.7699 3084.0801 M 4117.1899 3080.8101 L 4115.1499 3085.1001 M 4114.3299 3080.8101 L 4117.1899 3080.8101 M 4118.5399 3082.2401 L 4118.5399 3086.5401 M 4118.5399 3082.8501 L 4118.9499 3082.4501 L 4119.3599 3082.2401 L 4119.9699 3082.2401 L 4120.3799 3082.4501 L 4120.7899 3082.8501 L 4120.9999 3083.4701 L 4120.9999 3083.8801 L 4120.7899 3084.4901 L 4120.3799 3084.9001 L 4119.9699 3085.1001 L 4119.3599 3085.1001 L 4118.9499 3084.9001 L 4118.5399 3084.4901" fill="none"  stroke-width="0.6" c_note="note_name" /></g><g c_partid="part_pcbtext" c_etype="" c_origin="4115,3066.5" c_rotation="0" c_mirror="" id="gge351" locked="0" layerid="3" c_shapetype="group" ><path c_fontsize="4.5" c_fontfamily="" c_text="C10" d="M 4118.07 3062.98 L 4117.86 3062.57 L 4117.45 3062.16 L 4117.05 3061.96 L 4116.23 3061.96 L 4115.82 3062.16 L 4115.41 3062.57 L 4115.2 3062.98 L 4115 3063.6 L 4115 3064.62 L 4115.2 3065.23 L 4115.41 3065.64 L 4115.82 3066.05 L 4116.23 3066.25 L 4117.05 3066.25 L 4117.45 3066.05 L 4117.86 3065.64 L 4118.07 3065.23 M 4119.42 3062.78 L 4119.83 3062.57 L 4120.44 3061.96 L 4120.44 3066.25 M 4123.02 3061.96 L 4122.4 3062.16 L 4122 3062.78 L 4121.79 3063.8 L 4121.79 3064.41 L 4122 3065.44 L 4122.4 3066.05 L 4123.02 3066.25 L 4123.43 3066.25 L 4124.04 3066.05 L 4124.45 3065.44 L 4124.65 3064.41 L 4124.65 3063.8 L 4124.45 3062.78 L 4124.04 3062.16 L 4123.43 3061.96 L 4123.02 3061.96" fill="none"  stroke-width="0.6" c_note="note_pre" /></g><g c_partid="part_pcbtext" c_etype="" c_origin="4094.3001,3091.6975" c_rotation="90" c_mirror="" id="gge429" locked="0" layerid="3" c_shapetype="group" display="none"><path c_fontsize="4.5" c_fontfamily="" c_text="100nH" d="M 4090.5801 3091.6975 L 4090.3701 3091.2875 L 4089.7601 3090.6775 L 4094.0501 3090.6775 M 4089.7601 3088.0975 L 4089.9601 3088.7075 L 4090.5801 3089.1175 L 4091.6001 3089.3275 L 4092.2101 3089.3275 L 4093.2401 3089.1175 L 4093.8501 3088.7075 L 4094.0501 3088.0975 L 4094.0501 3087.6875 L 4093.8501 3087.0775 L 4093.2401 3086.6675 L 4092.2101 3086.4575 L 4091.6001 3086.4575 L 4090.5801 3086.6675 L 4089.9601 3087.0775 L 4089.7601 3087.6875 L 4089.7601 3088.0975 M 4089.7601 3083.8875 L 4089.9601 3084.4975 L 4090.5801 3084.9075 L 4091.6001 3085.1075 L 4092.2101 3085.1075 L 4093.2401 3084.9075 L 4093.8501 3084.4975 L 4094.0501 3083.8875 L 4094.0501 3083.4775 L 4093.8501 3082.8575 L 4093.2401 3082.4475 L 4092.2101 3082.2475 L 4091.6001 3082.2475 L 4090.5801 3082.4475 L 4089.9601 3082.8575 L 4089.7601 3083.4775 L 4089.7601 3083.8875 M 4091.1901 3080.8975 L 4094.0501 3080.8975 M 4092.0101 3080.8975 L 4091.4001 3080.2875 L 4091.1901 3079.8775 L 4091.1901 3079.2575 L 4091.4001 3078.8475 L 4092.0101 3078.6475 L 4094.0501 3078.6475 M 4089.7601 3077.2975 L 4094.0501 3077.2975 M 4089.7601 3074.4375 L 4094.0501 3074.4375 M 4091.8001 3077.2975 L 4091.8001 3074.4375" fill="none"  stroke-width="0.6" c_note="note_name" /></g><g c_partid="part_pcbtext" c_etype="" c_origin="4076,3082.5" c_rotation="270" c_mirror="" id="gge435" locked="0" layerid="3" c_shapetype="group" ><path c_fontsize="4.5" c_fontfamily="" c_text="L3" d="M 4080.54 3082.5 L 4076.25 3082.5 M 4076.25 3082.5 L 4076.25 3084.95 M 4080.54 3086.71 L 4080.54 3088.96 L 4078.9 3087.74 L 4078.9 3088.35 L 4078.7 3088.76 L 4078.5 3088.96 L 4077.88 3089.17 L 4077.47 3089.17 L 4076.86 3088.96 L 4076.45 3088.55 L 4076.25 3087.94 L 4076.25 3087.33 L 4076.45 3086.71 L 4076.65 3086.51 L 4077.06 3086.3" fill="none"  stroke-width="0.6" c_note="note_pre" /></g><g c_partid="part_pcbtext" c_etype="" c_origin="4099.99,3068.5625" c_rotation="90" c_mirror="" id="gge507" locked="0" layerid="3" c_shapetype="group" display="none"><path c_fontsize="4.5" c_fontfamily="" c_text="100nH" d="M 4096.27 3068.5625 L 4096.06 3068.1525 L 4095.45 3067.5425 L 4099.74 3067.5425 M 4095.45 3064.9625 L 4095.65 3065.5725 L 4096.27 3065.9825 L 4097.29 3066.1925 L 4097.9 3066.1925 L 4098.93 3065.9825 L 4099.54 3065.5725 L 4099.74 3064.9625 L 4099.74 3064.5525 L 4099.54 3063.9425 L 4098.93 3063.5325 L 4097.9 3063.3225 L 4097.29 3063.3225 L 4096.27 3063.5325 L 4095.65 3063.9425 L 4095.45 3064.5525 L 4095.45 3064.9625 M 4095.45 3060.7525 L 4095.65 3061.3625 L 4096.27 3061.7725 L 4097.29 3061.9725 L 4097.9 3061.9725 L 4098.93 3061.7725 L 4099.54 3061.3625 L 4099.74 3060.7525 L 4099.74 3060.3425 L 4099.54 3059.7225 L 4098.93 3059.3125 L 4097.9 3059.1125 L 4097.29 3059.1125 L 4096.27 3059.3125 L 4095.65 3059.7225 L 4095.45 3060.3425 L 4095.45 3060.7525 M 4096.88 3057.7625 L 4099.74 3057.7625 M 4097.7 3057.7625 L 4097.09 3057.1525 L 4096.88 3056.7425 L 4096.88 3056.1225 L 4097.09 3055.7125 L 4097.7 3055.5125 L 4099.74 3055.5125 M 4095.45 3054.1625 L 4099.74 3054.1625 M 4095.45 3051.3025 L 4099.74 3051.3025 M 4097.49 3054.1625 L 4097.49 3051.3025" fill="none"  stroke-width="0.6" c_note="note_name" /></g><g c_partid="part_pcbtext" c_etype="" c_origin="4109,3076.5" c_rotation="270" c_mirror="" id="gge513" locked="0" layerid="3" c_shapetype="group" ><path c_fontsize="4.5" c_fontfamily="" c_text="L4" d="M 4113.54 3076.5 L 4109.25 3076.5 M 4109.25 3076.5 L 4109.25 3078.95 M 4113.54 3082.35 L 4110.68 3080.3 L 4110.68 3083.37 M 4113.54 3082.35 L 4109.25 3082.35" fill="none"  stroke-width="0.6" c_note="note_pre" /></g><g c_partid="part_pcbtext" c_etype="" c_origin="4002.9685,3072" c_rotation="90" c_mirror="" id="gge585" locked="0" layerid="3" c_shapetype="group" display="none"><path c_fontsize="4.5" c_fontfamily="" c_text="SMA-KE-P902" d="M 3999.0385 3069.14 L 3998.6285 3069.55 L 3998.4285 3070.16 L 3998.4285 3070.98 L 3998.6285 3071.59 L 3999.0385 3072 L 3999.4485 3072 L 3999.8585 3071.8 L 4000.0685 3071.59 L 4000.2685 3071.18 L 4000.6785 3069.95 L 4000.8785 3069.55 L 4001.0885 3069.34 L 4001.4985 3069.14 L 4002.1085 3069.14 L 4002.5185 3069.55 L 4002.7185 3070.16 L 4002.7185 3070.98 L 4002.5185 3071.59 L 4002.1085 3072 M 3998.4285 3067.79 L 4002.7185 3067.79 M 3998.4285 3067.79 L 4002.7185 3066.15 M 3998.4285 3064.51 L 4002.7185 3066.15 M 3998.4285 3064.51 L 4002.7185 3064.51 M 3998.4285 3061.53 L 4002.7185 3063.16 M 3998.4285 3061.53 L 4002.7185 3059.89 M 4001.2885 3062.55 L 4001.2885 3060.5 M 4000.8785 3058.54 L 4000.8785 3054.86 M 3998.4285 3053.51 L 4002.7185 3053.51 M 3998.4285 3050.65 L 4001.2885 3053.51 M 4000.2685 3052.49 L 4002.7185 3050.65 M 3998.4285 3049.3 L 4002.7185 3049.3 M 3998.4285 3049.3 L 3998.4285 3046.64 M 4000.4685 3049.3 L 4000.4685 3047.66 M 4002.7185 3049.3 L 4002.7185 3046.64 M 4000.8785 3045.29 L 4000.8785 3041.6 M 3998.4285 3040.25 L 4002.7185 3040.25 M 3998.4285 3040.25 L 3998.4285 3038.41 L 3998.6285 3037.8 L 3998.8385 3037.6 L 3999.2485 3037.39 L 3999.8585 3037.39 L 4000.2685 3037.6 L 4000.4685 3037.8 L 4000.6785 3038.41 L 4000.6785 3040.25 M 3999.8585 3033.38 L 4000.4685 3033.59 L 4000.8785 3034 L 4001.0885 3034.61 L 4001.0885 3034.81 L 4000.8785 3035.43 L 4000.4685 3035.84 L 3999.8585 3036.04 L 3999.6585 3036.04 L 3999.0385 3035.84 L 3998.6285 3035.43 L 3998.4285 3034.81 L 3998.4285 3034.61 L 3998.6285 3034 L 3999.0385 3033.59 L 3999.8585 3033.38 L 4000.8785 3033.38 L 4001.9085 3033.59 L 4002.5185 3034 L 4002.7185 3034.61 L 4002.7185 3035.02 L 4002.5185 3035.63 L 4002.1085 3035.84 M 3998.4285 3030.8 L 3998.6285 3031.42 L 3999.2485 3031.83 L 4000.2685 3032.03 L 4000.8785 3032.03 L 4001.9085 3031.83 L 4002.5185 3031.42 L 4002.7185 3030.8 L 4002.7185 3030.4 L 4002.5185 3029.78 L 4001.9085 3029.37 L 4000.8785 3029.17 L 4000.2685 3029.17 L 3999.2485 3029.37 L 3998.6285 3029.78 L 3998.4285 3030.4 L 3998.4285 3030.8 M 3999.4485 3027.61 L 3999.2485 3027.61 L 3998.8385 3027.41 L 3998.6285 3027.2 L 3998.4285 3026.8 L 3998.4285 3025.98 L 3998.6285 3025.57 L 3998.8385 3025.36 L 3999.2485 3025.16 L 3999.6585 3025.16 L 4000.0685 3025.36 L 4000.6785 3025.77 L 4002.7185 3027.82 L 4002.7185 3024.95" fill="none"  stroke-width="0.6" c_note="note_name" /></g><g c_partid="part_pcbtext" c_etype="" c_origin="4009.9685,3072" c_rotation="90" c_mirror="" id="gge591" locked="0" layerid="3" c_shapetype="group" ><path c_fontsize="4.5" c_fontfamily="" c_text="RF1" d="M 4005.4285 3072 L 4009.7185 3072 M 4005.4285 3072 L 4005.4285 3070.16 L 4005.6285 3069.55 L 4005.8385 3069.34 L 4006.2485 3069.14 L 4006.6585 3069.14 L 4007.0685 3069.34 L 4007.2685 3069.55 L 4007.4685 3070.16 L 4007.4685 3072 M 4007.4685 3070.57 L 4009.7185 3069.14 M 4005.4285 3067.79 L 4009.7185 3067.79 M 4005.4285 3067.79 L 4005.4285 3065.13 M 4007.4685 3067.79 L 4007.4685 3066.15 M 4006.2485 3063.78 L 4006.0385 3063.37 L 4005.4285 3062.75 L 4009.7185 3062.75" fill="none"  stroke-width="0.6" c_note="note_pre" /></g><g c_partid="part_pcbtext" c_etype="" c_origin="4208.79,3113.3901" c_rotation="90" c_mirror="" id="gge738" locked="0" layerid="3" c_shapetype="group" display="none"><path c_fontsize="4.5" c_fontfamily="" c_text="HJ-SMA023" d="M 4204.25 3113.3901 L 4208.54 3113.3901 M 4204.25 3110.5301 L 4208.54 3110.5301 M 4206.29 3113.3901 L 4206.29 3110.5301 M 4204.25 3107.1301 L 4207.52 3107.1301 L 4208.14 3107.3401 L 4208.34 3107.5401 L 4208.54 3107.9501 L 4208.54 3108.3601 L 4208.34 3108.7701 L 4208.14 3108.9701 L 4207.52 3109.1801 L 4207.11 3109.1801 M 4206.7 3105.7801 L 4206.7 3102.1001 M 4204.86 3097.8901 L 4204.45 3098.2901 L 4204.25 3098.9101 L 4204.25 3099.7301 L 4204.45 3100.3401 L 4204.86 3100.7501 L 4205.27 3100.7501 L 4205.68 3100.5401 L 4205.89 3100.3401 L 4206.09 3099.9301 L 4206.5 3098.7001 L 4206.7 3098.2901 L 4206.91 3098.0901 L 4207.32 3097.8901 L 4207.93 3097.8901 L 4208.34 3098.2901 L 4208.54 3098.9101 L 4208.54 3099.7301 L 4208.34 3100.3401 L 4207.93 3100.7501 M 4204.25 3096.5401 L 4208.54 3096.5401 M 4204.25 3096.5401 L 4208.54 3094.9001 M 4204.25 3093.2601 L 4208.54 3094.9001 M 4204.25 3093.2601 L 4208.54 3093.2601 M 4204.25 3090.2801 L 4208.54 3091.9101 M 4204.25 3090.2801 L 4208.54 3088.6401 M 4207.11 3091.3001 L 4207.11 3089.2501 M 4204.25 3086.0601 L 4204.45 3086.6801 L 4205.07 3087.0901 L 4206.09 3087.2901 L 4206.7 3087.2901 L 4207.73 3087.0901 L 4208.34 3086.6801 L 4208.54 3086.0601 L 4208.54 3085.6501 L 4208.34 3085.0401 L 4207.73 3084.6301 L 4206.7 3084.4301 L 4206.09 3084.4301 L 4205.07 3084.6301 L 4204.45 3085.0401 L 4204.25 3085.6501 L 4204.25 3086.0601 M 4205.27 3082.8701 L 4205.07 3082.8701 L 4204.66 3082.6701 L 4204.45 3082.4601 L 4204.25 3082.0501 L 4204.25 3081.2401 L 4204.45 3080.8301 L 4204.66 3080.6201 L 4205.07 3080.4201 L 4205.48 3080.4201 L 4205.89 3080.6201 L 4206.5 3081.0301 L 4208.54 3083.0801 L 4208.54 3080.2101 M 4204.25 3078.4501 L 4204.25 3076.2001 L 4205.89 3077.4301 L 4205.89 3076.8201 L 4206.09 3076.4101 L 4206.29 3076.2001 L 4206.91 3076.0001 L 4207.32 3076.0001 L 4207.93 3076.2001 L 4208.34 3076.6101 L 4208.54 3077.2301 L 4208.54 3077.8401 L 4208.34 3078.4501 L 4208.14 3078.6601 L 4207.73 3078.8601" fill="none"  stroke-width="0.6" c_note="note_name" /></g><g c_partid="part_pcbtext" c_etype="" c_origin="4197,3076" c_rotation="270" c_mirror="" id="gge744" locked="0" layerid="3" c_shapetype="group" ><path c_fontsize="4.5" c_fontfamily="" c_text="RF2" d="M 4201.54 3076 L 4197.25 3076 M 4201.54 3076 L 4201.54 3077.84 L 4201.34 3078.45 L 4201.13 3078.66 L 4200.72 3078.86 L 4200.31 3078.86 L 4199.9 3078.66 L 4199.7 3078.45 L 4199.5 3077.84 L 4199.5 3076 M 4199.5 3077.43 L 4197.25 3078.86 M 4201.54 3080.21 L 4197.25 3080.21 M 4201.54 3080.21 L 4201.54 3082.87 M 4199.5 3080.21 L 4199.5 3081.85 M 4200.52 3084.43 L 4200.72 3084.43 L 4201.13 3084.63 L 4201.34 3084.84 L 4201.54 3085.25 L 4201.54 3086.06 L 4201.34 3086.47 L 4201.13 3086.68 L 4200.72 3086.88 L 4200.31 3086.88 L 4199.9 3086.68 L 4199.29 3086.27 L 4197.25 3084.22 L 4197.25 3087.09" fill="none"  stroke-width="0.6" c_note="note_pre" /></g><g c_partid="part_pcbtext" c_etype="" c_origin="4120.9995,3074.5" c_rotation="90" c_mirror="" id="gge897" locked="0" layerid="3" c_shapetype="group" display="none"><path c_fontsize="4.5" c_fontfamily="" c_text="SPF5043Z" d="M 4117.0695 3071.64 L 4116.6595 3072.05 L 4116.4595 3072.66 L 4116.4595 3073.48 L 4116.6595 3074.09 L 4117.0695 3074.5 L 4117.4795 3074.5 L 4117.8895 3074.3 L 4118.0995 3074.09 L 4118.2995 3073.68 L 4118.7095 3072.45 L 4118.9095 3072.05 L 4119.1195 3071.84 L 4119.5295 3071.64 L 4120.1395 3071.64 L 4120.5495 3072.05 L 4120.7495 3072.66 L 4120.7495 3073.48 L 4120.5495 3074.09 L 4120.1395 3074.5 M 4116.4595 3070.29 L 4120.7495 3070.29 M 4116.4595 3070.29 L 4116.4595 3068.45 L 4116.6595 3067.83 L 4116.8695 3067.63 L 4117.2795 3067.42 L 4117.8895 3067.42 L 4118.2995 3067.63 L 4118.4995 3067.83 L 4118.7095 3068.45 L 4118.7095 3070.29 M 4116.4595 3066.07 L 4120.7495 3066.07 M 4116.4595 3066.07 L 4116.4595 3063.41 M 4118.4995 3066.07 L 4118.4995 3064.44 M 4116.4595 3059.61 L 4116.4595 3061.65 L 4118.2995 3061.86 L 4118.0995 3061.65 L 4117.8895 3061.04 L 4117.8895 3060.43 L 4118.0995 3059.81 L 4118.4995 3059.4 L 4119.1195 3059.2 L 4119.5295 3059.2 L 4120.1395 3059.4 L 4120.5495 3059.81 L 4120.7495 3060.43 L 4120.7495 3061.04 L 4120.5495 3061.65 L 4120.3495 3061.86 L 4119.9395 3062.06 M 4116.4595 3056.62 L 4116.6595 3057.24 L 4117.2795 3057.65 L 4118.2995 3057.85 L 4118.9095 3057.85 L 4119.9395 3057.65 L 4120.5495 3057.24 L 4120.7495 3056.62 L 4120.7495 3056.21 L 4120.5495 3055.6 L 4119.9395 3055.19 L 4118.9095 3054.99 L 4118.2995 3054.99 L 4117.2795 3055.19 L 4116.6595 3055.6 L 4116.4595 3056.21 L 4116.4595 3056.62 M 4116.4595 3051.59 L 4119.3195 3053.64 L 4119.3195 3050.57 M 4116.4595 3051.59 L 4120.7495 3051.59 M 4116.4595 3048.81 L 4116.4595 3046.56 L 4118.0995 3047.79 L 4118.0995 3047.17 L 4118.2995 3046.76 L 4118.4995 3046.56 L 4119.1195 3046.35 L 4119.5295 3046.35 L 4120.1395 3046.56 L 4120.5495 3046.97 L 4120.7495 3047.58 L 4120.7495 3048.2 L 4120.5495 3048.81 L 4120.3495 3049.01 L 4119.9395 3049.22 M 4116.4595 3042.14 L 4120.7495 3045 M 4116.4595 3045 L 4116.4595 3042.14 M 4120.7495 3045 L 4120.7495 3042.14" fill="none"  stroke-width="0.6" c_note="note_name" /></g><g c_partid="part_pcbtext" c_etype="" c_origin="4128.5,3066.5" c_rotation="0" c_mirror="" id="gge903" locked="0" layerid="3" c_shapetype="group" ><path c_fontsize="4.5" c_fontfamily="" c_text="U1" d="M 4128.5 3061.96 L 4128.5 3065.03 L 4128.7 3065.64 L 4129.11 3066.05 L 4129.73 3066.25 L 4130.14 3066.25 L 4130.75 3066.05 L 4131.16 3065.64 L 4131.36 3065.03 L 4131.36 3061.96 M 4132.71 3062.78 L 4133.12 3062.57 L 4133.74 3061.96 L 4133.74 3066.25" fill="none"  stroke-width="0.6" c_note="note_pre" /></g><path d="M 4063.9665 3069.9031 A 1.2198 1.2198 0 0 1 4065.1863 3068.6833" locked="0"  fill="none" stroke-width="1" c_helper_type="arc2" net="" layerid="3" id="gge48" /><path d="M 4065.1863 3074.2725 A 1.2198 1.2198 0 0 1 4063.9665 3073.0526" locked="0"  fill="none" stroke-width="1" c_helper_type="arc2" net="" layerid="3" id="gge51" /><path d="M 4073.7527 3068.7062 A 1.2198 1.2198 0 0 1 4074.9725 3069.9261" locked="0"  fill="none" stroke-width="1" c_helper_type="arc2" net="" layerid="3" id="gge54" /><path d="M 4074.9725 3073.0756 A 1.2198 1.2198 0 0 1 4073.7527 3074.2954" locked="0"  fill="none" stroke-width="1" c_helper_type="arc2" net="" layerid="3" id="gge57" /><path d="M 4083.4031 3080.0335 A 1.2198 1.2198 0 0 1 4082.1833 3078.8137" locked="0"  fill="none" stroke-width="1" c_helper_type="arc2" net="" layerid="3" id="gge132" /><path d="M 4087.7725 3078.8137 A 1.2198 1.2198 0 0 1 4086.5526 3080.0335" locked="0"  fill="none" stroke-width="1" c_helper_type="arc2" net="" layerid="3" id="gge135" /><path d="M 4082.2062 3070.2473 A 1.2198 1.2198 0 0 1 4083.4261 3069.0275" locked="0"  fill="none" stroke-width="1" c_helper_type="arc2" net="" layerid="3" id="gge138" /><path d="M 4086.5756 3069.0275 A 1.2198 1.2198 0 0 1 4087.7954 3070.2473" locked="0"  fill="none" stroke-width="1" c_helper_type="arc2" net="" layerid="3" id="gge141" /><path d="M 4089.4665 3069.9031 A 1.2198 1.2198 0 0 1 4090.6863 3068.6833" locked="0"  fill="none" stroke-width="1" c_helper_type="arc2" net="" layerid="3" id="gge216" /><path d="M 4090.6863 3074.2725 A 1.2198 1.2198 0 0 1 4089.4665 3073.0526" locked="0"  fill="none" stroke-width="1" c_helper_type="arc2" net="" layerid="3" id="gge219" /><path d="M 4099.2527 3068.7062 A 1.2198 1.2198 0 0 1 4100.4725 3069.9261" locked="0"  fill="none" stroke-width="1" c_helper_type="arc2" net="" layerid="3" id="gge222" /><path d="M 4100.4725 3073.0756 A 1.2198 1.2198 0 0 1 4099.2527 3074.2954" locked="0"  fill="none" stroke-width="1" c_helper_type="arc2" net="" layerid="3" id="gge225" /><path d="M 4106.0969 3062.9665 A 1.2198 1.2198 0 0 1 4107.3167 3064.1863" locked="0"  fill="none" stroke-width="1" c_helper_type="arc2" net="" layerid="3" id="gge300" /><path d="M 4101.7275 3064.1863 A 1.2198 1.2198 0 0 1 4102.9474 3062.9665" locked="0"  fill="none" stroke-width="1" c_helper_type="arc2" net="" layerid="3" id="gge303" /><path d="M 4107.2938 3072.7527 A 1.2198 1.2198 0 0 1 4106.0739 3073.9725" locked="0"  fill="none" stroke-width="1" c_helper_type="arc2" net="" layerid="3" id="gge306" /><path d="M 4102.9244 3073.9725 A 1.2198 1.2198 0 0 1 4101.7046 3072.7527" locked="0"  fill="none" stroke-width="1" c_helper_type="arc2" net="" layerid="3" id="gge309" /><path d="M 4125.5335 3072.5969 A 1.2198 1.2198 0 0 1 4124.3137 3073.8167" locked="0"  fill="none" stroke-width="1" c_helper_type="arc2" net="" layerid="3" id="gge384" /><path d="M 4124.3137 3068.2275 A 1.2198 1.2198 0 0 1 4125.5335 3069.4474" locked="0"  fill="none" stroke-width="1" c_helper_type="arc2" net="" layerid="3" id="gge387" /><path d="M 4115.7473 3073.7938 A 1.2198 1.2198 0 0 1 4114.5275 3072.5739" locked="0"  fill="none" stroke-width="1" c_helper_type="arc2" net="" layerid="3" id="gge390" /><path d="M 4114.5275 3069.4244 A 1.2198 1.2198 0 0 1 4115.7473 3068.2046" locked="0"  fill="none" stroke-width="1" c_helper_type="arc2" net="" layerid="3" id="gge393" /><circle cx="4138.3305" cy="3078.618" r="0.394" stroke-width="1" fill="none" layerid="3" id="gge924" locked="0"  /><polyline points="4050 3050 4050 3048.5 4161.5 3048.5 4161.5 3095 4148.5 3095 4143.5 3095" stroke-width="1"  stroke-linecap="round" fill="none" layerid="10" net="" id="gge1071" locked="0" /><polyline points="4050.5 3095.5 4050 3050" stroke-width="1"  stroke-linecap="round" fill="none" layerid="10" net="" id="gge1074" locked="0" /><polyline points="4148 3095 4050.5 3095.5" stroke-width="1"  stroke-linecap="round" fill="none" layerid="10" net="" id="gge1068" locked="0" /></svg>